<svg xmlns="http://www.w3.org/2000/svg" width="53" height="16.058" fill="none" overflow="visible"><g><path d="M 48.585 7.807 L 46.742 7.807 C 45.549 7.807 44.9 8.697 44.9 10.246 L 44.9 15.782 L 41.33 15.782 L 41.33 7.807 L 39.843 7.807 C 38.651 7.807 38.001 8.697 38.001 10.246 L 38.001 15.782 L 34.431 15.782 L 34.431 4.825 L 38.001 4.825 L 38.001 6.489 C 38.597 5.181 39.372 4.825 40.564 4.825 L 44.908 4.825 L 44.908 6.489 C 45.505 5.181 46.279 4.825 47.472 4.825 L 48.665 4.825 Z M 33.577 11.145 L 26.197 11.145 C 26.375 12.391 27.15 13.05 28.396 13.05 C 29.349 13.05 30.007 12.631 30.239 11.982 L 33.399 12.872 C 32.624 14.777 30.719 15.907 28.396 15.907 C 24.524 15.907 22.744 12.872 22.744 10.255 C 22.744 7.691 24.292 4.656 28.165 4.656 C 32.268 4.656 33.639 7.753 33.639 10.077 C 33.639 10.602 33.639 10.896 33.577 11.145 Z M 30.185 9.053 C 30.123 8.1 29.411 7.264 28.218 7.264 C 27.088 7.264 26.429 7.744 26.197 9.053 Z M 16.557 15.782 L 19.655 15.782 L 23.58 4.887 L 20.011 4.887 L 18.106 11.26 L 16.201 4.834 L 12.631 4.834 Z M 2.03 15.782 L 5.546 15.782 L 5.546 7.807 L 8.937 7.807 L 8.937 15.782 L 12.453 15.782 L 12.453 4.825 L 5.537 4.825 L 5.537 4.166 C 5.537 3.454 6.071 2.973 6.845 2.973 L 8.928 2.973 L 8.928 0 L 6.311 0 C 3.756 0 2.03 1.611 2.03 3.934 L 2.03 4.825 L 0 4.825 L 0 7.798 L 2.021 7.798 L 2.021 15.782 Z" fill="rgb(63,65,68)"></path><path d="M 50.801 16.058 C 51.994 16.058 53 15.044 53 13.86 C 53 12.667 51.985 11.661 50.801 11.661 C 49.617 11.661 48.603 12.676 48.603 13.86 C 48.603 15.044 49.609 16.058 50.801 16.058 Z" fill="rgb(28,191,114)"></path></g></svg>

