<?xml version="1.0" encoding="UTF-8"?>
<svg id="Layer_1" xmlns="http://www.w3.org/2000/svg" version="1.1" viewBox="0 0 53 16.06">
  <!-- Generator: Adobe Illustrator 29.8.2, SVG Export Plug-In . SVG Version: 2.1.1 Build 3)  -->
  <defs>
    <style>
      .st0 {
        fill: #fff;
      }

      .st1 {
        fill: #1cbf72;
      }
    </style>
  </defs>
  <path class="st0" d="M48.58,7.81h-1.84c-1.19,0-1.84.89-1.84,2.44v5.54h-3.57v-7.97h-1.49c-1.19,0-1.84.89-1.84,2.44v5.54h-3.57V4.82h3.57v1.66c.6-1.31,1.37-1.66,2.56-1.66h4.34v1.66c.6-1.31,1.37-1.66,2.56-1.66h1.19l-.08,2.98ZM33.58,11.14h-7.38c.18,1.25.95,1.9,2.2,1.9.95,0,1.61-.42,1.84-1.07l3.16.89c-.77,1.91-2.68,3.03-5,3.03-3.87,0-5.65-3.03-5.65-5.65s1.55-5.6,5.42-5.6c4.1,0,5.47,3.1,5.47,5.42,0,.53,0,.82-.06,1.07ZM30.18,9.05c-.06-.95-.77-1.79-1.97-1.79-1.13,0-1.79.48-2.02,1.79h3.99ZM16.56,15.78h3.1l3.92-10.89h-3.57l-1.9,6.37-1.91-6.43h-3.57l3.93,10.95ZM2.03,15.78h3.52v-7.97h3.39v7.97h3.52V4.82h-6.92v-.66c0-.71.53-1.19,1.31-1.19h2.08V0h-2.62C3.76,0,2.03,1.61,2.03,3.93v.89H0v2.97h2.02v7.98h0Z"/>
  <path class="st1" d="M50.8,16.06c1.19,0,2.2-1.01,2.2-2.2s-1.01-2.2-2.2-2.2-2.2,1.01-2.2,2.2,1.01,2.2,2.2,2.2Z"/>
</svg>