<svg xmlns="http://www.w3.org/2000/svg" width="77" height="22" fill="none" overflow="visible"><g><path d="M 21.051 13.975 C 19.799 13.975 18.626 13.464 17.56 12.633 L 17.82 11.461 L 17.831 11.417 C 18.062 10.168 18.795 8.072 21.051 8.072 C 22.742 8.072 24.118 9.397 24.118 11.026 C 24.113 12.65 22.737 13.975 21.051 13.975 Z M 21.051 5.08 C 18.169 5.08 15.936 6.883 15.028 9.848 C 13.641 7.844 12.592 5.439 11.978 3.413 L 8.876 3.413 L 8.876 11.184 C 8.876 12.715 7.579 13.964 5.989 13.964 C 4.399 13.964 3.102 12.715 3.102 11.184 L 3.102 3.413 L 0 3.413 L 0 11.184 C -0.011 14.366 2.679 16.977 5.983 16.977 C 9.288 16.977 11.977 14.366 11.977 11.184 L 11.977 9.88 C 12.581 11.091 13.319 12.313 14.216 13.399 L 12.316 22 L 15.491 22 L 16.866 15.761 C 18.073 16.505 19.46 16.972 21.051 16.972 C 24.451 16.972 27.22 14.29 27.22 11.015 C 27.22 7.746 24.451 5.08 21.051 5.08 Z" fill="rgb(111,218,68)"></path><path d="M 36.698 5.419 L 38.7 13.189 L 40.905 5.419 L 43.532 5.419 L 40.143 16.648 L 37.515 16.648 L 35.435 8.829 L 33.359 16.643 L 30.732 16.643 L 27.342 5.414 L 29.97 5.414 L 32.175 13.184 L 34.177 5.414 L 36.698 5.414 L 36.698 5.419 Z M 49.82 5.083 C 46.408 5.083 43.645 7.749 43.645 11.028 C 43.645 14.314 46.414 16.974 49.82 16.974 C 53.232 16.974 56 14.314 56 11.028 C 56 7.743 53.232 5.083 49.82 5.083 Z M 49.82 14.531 C 47.812 14.531 46.188 12.967 46.188 11.034 C 46.188 9.101 47.818 7.537 49.82 7.537 C 51.827 7.537 53.451 9.101 53.451 11.034 C 53.451 12.961 51.827 14.531 49.82 14.531 Z M 63.506 7.933 C 61.741 7.933 60.314 9.312 60.314 11.007 L 60.314 16.643 L 57.669 16.643 L 57.669 5.419 L 60.314 5.419 L 60.314 7.146 C 60.314 7.146 61.442 5.414 63.76 5.414 L 64.572 5.414 L 64.572 7.933 Z M 72.382 10.594 C 74.259 9.573 75.534 7.635 75.534 5.414 L 72.889 5.414 C 72.889 7.287 71.31 8.807 69.365 8.807 L 69.009 8.807 L 69.009 0 L 66.365 0 L 66.365 16.643 L 69.009 16.643 L 69.009 11.354 L 69.325 11.354 C 69.585 11.354 69.923 11.517 70.075 11.718 L 73.831 16.643 L 77 16.643 Z" fill="rgb(0,0,0)"></path></g></svg>

