<svg width="97" height="21" viewBox="0 0 97 21" fill="none" xmlns="http://www.w3.org/2000/svg">
<path d="M16.5967 0C18.6024 0 20.2284 1.66405 20.2285 3.7168V16.5107C20.2285 18.5635 18.6024 20.2275 16.5967 20.2275H3.63184C1.62607 20.2275 3.72654e-05 18.5635 0 16.5107V3.7168C9.63088e-05 1.66405 1.62611 0 3.63184 0H16.5967ZM13.9902 8.08984C13.746 8.0808 13.6887 8.18014 13.6904 8.41211C13.6999 9.44822 13.6953 10.4844 13.6953 11.5205C13.6953 12.5566 13.6966 13.6369 13.6934 14.6943C13.6928 14.8749 13.7081 15.0125 13.9395 15.0088V15.0078C14.1761 15.0033 14.4137 15.0028 14.6504 15.0029C14.8871 15.003 15.1238 15.0052 15.3604 15.0088C15.5014 15.0107 15.5597 14.9581 15.5791 14.8604C15.5856 14.8278 15.5879 14.7902 15.5879 14.748C15.5849 12.6111 15.5836 10.4739 15.5879 8.33691C15.5882 8.15315 15.5246 8.08967 15.3486 8.09277H15.3477C14.8955 8.10063 14.4424 8.10664 13.9902 8.08984ZM9.53125 5.8916C8.87886 5.90127 8.22617 5.89611 7.57324 5.89355C7.43037 5.89293 7.35855 5.94535 7.36426 6.10156C7.37756 6.45464 7.25531 6.77915 7.14453 7.10449C6.47117 9.08958 5.79692 11.0751 5.12305 13.0605C4.94364 13.5891 4.76423 14.1178 4.58496 14.6465C4.55703 14.7287 4.53667 14.7916 4.52734 14.8398C4.50864 14.9366 4.53375 14.9738 4.62695 14.9883C4.67342 14.9955 4.73684 14.9975 4.82031 14.998C5.02033 14.9993 5.22076 14.9969 5.4209 14.9961C5.62078 14.9953 5.82083 14.9955 6.02051 15.002C6.04666 15.0028 6.07135 15.0026 6.09473 15.001C6.16511 14.9962 6.22365 14.9804 6.27148 14.9482C6.30334 14.9268 6.33026 14.8979 6.35352 14.8613C6.37669 14.8249 6.39636 14.7804 6.41211 14.7266C6.57114 14.1795 6.75493 13.6393 6.91699 13.0928C6.96961 12.916 7.0407 12.8296 7.24121 12.832C7.68353 12.8382 8.12609 12.8409 8.56836 12.8408C9.0104 12.8408 9.45245 12.8385 9.89453 12.834L10.0107 12.8428C10.1124 12.8643 10.1724 12.9261 10.2109 13.0596C10.3066 13.3897 10.4261 13.7132 10.5352 14.04C10.5484 14.0796 10.5622 14.1181 10.5771 14.1553C10.6072 14.2303 10.6408 14.3003 10.6777 14.3652C10.7146 14.4301 10.7551 14.49 10.7988 14.5449C10.8866 14.6551 10.9882 14.7454 11.1035 14.8154C11.1896 14.8677 11.2834 14.9086 11.3848 14.9385C11.4526 14.9585 11.5239 14.9734 11.5986 14.9834C11.6359 14.9884 11.6739 14.9926 11.7129 14.9951C11.7521 14.9976 11.7921 14.999 11.833 14.999C11.9489 14.999 12.0649 14.9959 12.1807 14.9951C12.2965 14.9943 12.4127 14.9951 12.5283 15.001C12.7445 15.0116 12.829 14.9574 12.7812 14.7715C12.7744 14.7447 12.7643 14.7151 12.752 14.6826C12.6994 14.5443 12.6519 14.4042 12.6025 14.2646C12.4764 13.9078 12.3553 13.5489 12.2314 13.1914C11.4231 10.8554 10.616 8.51882 9.80566 6.18359C9.76464 6.0657 9.74809 5.92828 9.60254 5.89746C9.58172 5.89306 9.55779 5.89128 9.53125 5.8916ZM8.83105 8.50684C9.06218 9.26671 9.29152 10.0274 9.53906 10.7812C9.62186 11.0337 9.56554 11.0985 9.31348 11.0908C8.79918 11.0753 8.28383 11.0756 7.76953 11.0898C7.73973 11.0906 7.71349 11.091 7.69043 11.0889C7.529 11.0739 7.52576 10.9873 7.58008 10.8076C7.74219 10.2687 7.9115 9.73201 8.07617 9.18457C8.15853 8.91077 8.23988 8.63433 8.31836 8.35352C8.39686 8.0726 8.47235 7.78728 8.54395 7.49609L8.83105 8.50684ZM14.6641 5.21875C14.0376 5.22259 13.6095 5.6599 13.6133 6.29395C13.6156 6.7514 13.8265 7.10027 14.1699 7.2666C14.2132 7.28761 14.2582 7.30629 14.3057 7.32129C14.3463 7.33413 14.3882 7.3453 14.4316 7.35352C14.4685 7.3605 14.5062 7.36659 14.5449 7.37012C14.5822 7.37351 14.6212 7.37492 14.6602 7.375C14.7382 7.37512 14.8133 7.36816 14.8848 7.35449C14.9562 7.34084 15.024 7.32038 15.0879 7.29395C15.184 7.25421 15.2712 7.20057 15.3477 7.13477C15.3987 7.09083 15.4452 7.04161 15.4863 6.9873C15.5478 6.90611 15.5971 6.81347 15.6338 6.71191C15.6583 6.64396 15.6772 6.57191 15.6895 6.49609C15.7017 6.42025 15.708 6.34051 15.707 6.25781C15.7065 6.21817 15.7038 6.17944 15.7002 6.1416C15.6787 5.91474 15.603 5.72074 15.4814 5.57031C15.4409 5.52004 15.395 5.47483 15.3447 5.43457C15.2948 5.39461 15.2404 5.35944 15.1816 5.33008C15.1521 5.31532 15.1215 5.30198 15.0898 5.29004C14.9634 5.24226 14.8202 5.21779 14.6641 5.21875Z" fill="black"/>
<path d="M30.5288 5.08577V15.4698C30.5288 15.5658 30.4861 15.6138 30.4008 15.6138H28.6408C28.5448 15.6138 28.4968 15.5658 28.4968 15.4698V5.08577C28.4968 5.00044 28.5448 4.95777 28.6408 4.95777H30.4008C30.4861 4.95777 30.5288 5.00044 30.5288 5.08577ZM32.7419 13.7738V4.20577C32.7419 4.12044 32.7899 4.07777 32.8859 4.07777H34.6299C34.7259 4.07777 34.7739 4.12044 34.7739 4.20577V13.7578C34.7739 13.9818 34.8112 14.1364 34.8859 14.2218C34.9712 14.3071 35.0939 14.3498 35.2539 14.3498C35.3392 14.3498 35.4566 14.3391 35.6059 14.3178C35.6592 14.3178 35.6859 14.3498 35.6859 14.4138V15.4378C35.6859 15.5338 35.6539 15.5924 35.5899 15.6138C35.3339 15.7204 34.9819 15.7738 34.5339 15.7738C33.9579 15.7738 33.5152 15.6244 33.2059 15.3258C32.8966 15.0271 32.7419 14.5098 32.7419 13.7738ZM37.1013 13.7738V4.20577C37.1013 4.12044 37.1493 4.07777 37.2453 4.07777H38.9893C39.0853 4.07777 39.1333 4.12044 39.1333 4.20577V13.7578C39.1333 13.9818 39.1706 14.1364 39.2453 14.2218C39.3306 14.3071 39.4533 14.3498 39.6133 14.3498C39.6986 14.3498 39.8159 14.3391 39.9653 14.3178C40.0186 14.3178 40.0453 14.3498 40.0453 14.4138V15.4378C40.0453 15.5338 40.0133 15.5924 39.9493 15.6138C39.6933 15.7204 39.3413 15.7738 38.8933 15.7738C38.3173 15.7738 37.8746 15.6244 37.5653 15.3258C37.2559 15.0271 37.1013 14.5098 37.1013 13.7738ZM48.2766 7.94977V13.8538C48.2766 14.5044 48.3086 15.0538 48.3726 15.5018C48.3726 15.5764 48.33 15.6138 48.2446 15.6138H46.6926C46.6073 15.6138 46.5486 15.5764 46.5166 15.5018C46.4526 15.3311 46.4206 15.1498 46.4206 14.9578C45.834 15.5018 45.082 15.7738 44.1646 15.7738C42.362 15.7738 41.4606 14.7551 41.4606 12.7178V7.94977C41.4606 7.86444 41.5033 7.82177 41.5886 7.82177H43.3646C43.45 7.82177 43.4926 7.86444 43.4926 7.94977V12.5738C43.4926 13.6618 43.9353 14.2058 44.8206 14.2058C45.418 14.2058 45.8926 14.0031 46.2446 13.5978V7.94977C46.2446 7.86444 46.2926 7.82177 46.3886 7.82177H48.1486C48.234 7.82177 48.2766 7.86444 48.2766 7.94977ZM54.8435 9.66177C54.2462 9.28844 53.6222 9.10177 52.9715 9.10177C52.5982 9.10177 52.3209 9.1711 52.1395 9.30977C51.9689 9.44844 51.8835 9.61377 51.8835 9.80577C51.8835 9.99777 51.9582 10.1684 52.1075 10.3178C52.2569 10.4564 52.5715 10.6218 53.0515 10.8138C53.9369 11.1551 54.5555 11.5178 54.9075 11.9018C55.2702 12.2751 55.4515 12.7604 55.4515 13.3578C55.4515 14.0831 55.1742 14.6698 54.6195 15.1178C54.0755 15.5551 53.3342 15.7738 52.3955 15.7738C51.4569 15.7738 50.6889 15.6031 50.0915 15.2618C50.0275 15.2404 49.9955 15.1871 49.9955 15.1018V13.6138C49.9955 13.5711 50.0062 13.5444 50.0275 13.5338C50.0595 13.5124 50.0862 13.5124 50.1075 13.5338C50.8009 14.0458 51.5422 14.3018 52.3315 14.3018C52.7049 14.3018 52.9875 14.2378 53.1795 14.1098C53.3822 13.9711 53.4835 13.7951 53.4835 13.5818C53.4835 13.3578 53.4035 13.1711 53.2435 13.0218C53.0835 12.8618 52.7689 12.6911 52.2995 12.5098C51.4462 12.1791 50.8489 11.8271 50.5075 11.4538C50.1769 11.0698 50.0115 10.5898 50.0115 10.0138C50.0115 9.35244 50.2622 8.79777 50.7635 8.34977C51.2649 7.90177 51.9795 7.67777 52.9075 7.67777C53.7715 7.67777 54.4382 7.7951 54.9075 8.02977C54.9609 8.06177 54.9875 8.1311 54.9875 8.23777V9.56577C54.9875 9.69377 54.9395 9.72577 54.8435 9.66177ZM60.9416 14.3338V15.3098C60.9416 15.4164 60.9096 15.4804 60.8456 15.5018C60.4723 15.6831 59.9816 15.7738 59.3736 15.7738C57.955 15.7738 57.2456 15.0218 57.2456 13.5178V9.27777H56.2696C56.195 9.27777 56.1576 9.22977 56.1576 9.13377V7.94977C56.1576 7.86444 56.2003 7.82177 56.2856 7.82177H57.2456C57.299 6.82977 57.3576 6.1791 57.4216 5.86977C57.443 5.78444 57.4856 5.73644 57.5496 5.72577L59.2616 5.50177C59.3363 5.48044 59.3736 5.5071 59.3736 5.58177C59.331 6.06177 59.299 6.80844 59.2776 7.82177H60.8136C60.8883 7.82177 60.9256 7.86444 60.9256 7.94977V9.16577C60.9256 9.24044 60.8936 9.27777 60.8296 9.27777H59.2776V13.3098C59.2776 13.6724 59.3416 13.9391 59.4696 14.1098C59.6083 14.2698 59.843 14.3498 60.1736 14.3498C60.3976 14.3498 60.6163 14.3124 60.8296 14.2378C60.9043 14.2164 60.9416 14.2484 60.9416 14.3338ZM62.4141 7.82177H63.9981C64.0835 7.82177 64.1421 7.86977 64.1741 7.96577C64.2488 8.16844 64.3075 8.4831 64.3501 8.90977C64.9795 8.08844 65.8328 7.67777 66.9101 7.67777C66.9848 7.67777 67.0221 7.7151 67.0221 7.78977V9.43777C67.0221 9.5231 66.9795 9.56577 66.8941 9.56577C65.9235 9.50177 65.1501 9.75777 64.5741 10.3338C64.4781 10.4298 64.4301 10.5578 64.4301 10.7178V15.4858C64.4301 15.5711 64.3875 15.6138 64.3021 15.6138H62.5421C62.4461 15.6138 62.3981 15.5711 62.3981 15.4858V10.0938C62.3981 9.26177 62.3715 8.54177 62.3181 7.93377C62.3075 7.8591 62.3395 7.82177 62.4141 7.82177ZM72.2918 14.2058V11.9978C72.0998 11.9551 71.8011 11.9338 71.3958 11.9338C70.8198 11.9338 70.3771 12.0404 70.0678 12.2538C69.7584 12.4671 69.6038 12.7658 69.6038 13.1498C69.6038 13.5231 69.7318 13.8271 69.9878 14.0618C70.2438 14.2964 70.6384 14.4138 71.1718 14.4138C71.5878 14.4138 71.9611 14.3444 72.2918 14.2058ZM74.2598 10.7978V13.8698C74.2598 14.3284 74.2758 14.6804 74.3078 14.9258C74.3078 14.9578 74.2918 14.9791 74.2598 14.9898C73.1398 15.5124 71.9931 15.7738 70.8198 15.7738C69.8704 15.7738 69.0971 15.5658 68.4998 15.1498C67.9131 14.7231 67.6198 14.0778 67.6198 13.2138C67.6198 12.3924 67.9504 11.7738 68.6118 11.3578C69.2838 10.9311 70.1744 10.7178 71.2838 10.7178C71.4651 10.7178 71.6731 10.7231 71.9078 10.7338C72.1424 10.7338 72.2704 10.7338 72.2918 10.7338V10.4618C72.2918 10.2911 72.2598 10.1204 72.1958 9.94977C72.1424 9.7791 71.9878 9.60844 71.7318 9.43777C71.4758 9.2671 71.1344 9.18177 70.7078 9.18177C69.9718 9.18177 69.2411 9.36844 68.5158 9.74177C68.4304 9.78444 68.3878 9.75244 68.3878 9.64577V8.41377C68.3878 8.32844 68.4198 8.2751 68.4838 8.25377C69.2304 7.86977 70.0998 7.67777 71.0918 7.67777C72.1371 7.67777 72.9264 7.96577 73.4598 8.54177C73.9931 9.1071 74.2598 9.8591 74.2598 10.7978ZM80.1604 14.3338V15.3098C80.1604 15.4164 80.1284 15.4804 80.0644 15.5018C79.6911 15.6831 79.2004 15.7738 78.5924 15.7738C77.1737 15.7738 76.4644 15.0218 76.4644 13.5178V9.27777H75.4884C75.4137 9.27777 75.3764 9.22977 75.3764 9.13377V7.94977C75.3764 7.86444 75.4191 7.82177 75.5044 7.82177H76.4644C76.5177 6.82977 76.5764 6.1791 76.6404 5.86977C76.6617 5.78444 76.7044 5.73644 76.7684 5.72577L78.4804 5.50177C78.5551 5.48044 78.5924 5.5071 78.5924 5.58177C78.5497 6.06177 78.5177 6.80844 78.4964 7.82177H80.0324C80.1071 7.82177 80.1444 7.86444 80.1444 7.94977V9.16577C80.1444 9.24044 80.1124 9.27777 80.0484 9.27777H78.4964V13.3098C78.4964 13.6724 78.5604 13.9391 78.6884 14.1098C78.8271 14.2698 79.0617 14.3498 79.3924 14.3498C79.6164 14.3498 79.8351 14.3124 80.0484 14.2378C80.1231 14.2164 80.1604 14.2484 80.1604 14.3338ZM85.1239 7.67777C86.3399 7.67777 87.2946 8.05644 87.9879 8.81377C88.6812 9.5711 89.0279 10.5311 89.0279 11.6938C89.0279 12.9524 88.6652 13.9498 87.9399 14.6858C87.2146 15.4111 86.2652 15.7738 85.0919 15.7738C83.8012 15.7738 82.8199 15.3844 82.1479 14.6058C81.4759 13.8164 81.1399 12.8564 81.1399 11.7258C81.1399 10.5418 81.5026 9.5711 82.2279 8.81377C82.9639 8.05644 83.9292 7.67777 85.1239 7.67777ZM85.0439 9.06977C84.4892 9.06977 84.0412 9.30444 83.6999 9.77377C83.3586 10.2324 83.1879 10.8724 83.1879 11.6938C83.1879 12.5151 83.3586 13.1658 83.6999 13.6458C84.0412 14.1258 84.5159 14.3658 85.1239 14.3658C85.6466 14.3658 86.0839 14.1471 86.4359 13.7098C86.7879 13.2618 86.9639 12.6004 86.9639 11.7258C86.9639 10.9258 86.8039 10.2858 86.4839 9.80577C86.1639 9.3151 85.6839 9.06977 85.0439 9.06977ZM90.6641 7.82177H92.2481C92.3335 7.82177 92.3921 7.86977 92.4241 7.96577C92.4988 8.16844 92.5575 8.4831 92.6001 8.90977C93.2295 8.08844 94.0828 7.67777 95.1601 7.67777C95.2348 7.67777 95.2721 7.7151 95.2721 7.78977V9.43777C95.2721 9.5231 95.2295 9.56577 95.1441 9.56577C94.1735 9.50177 93.4001 9.75777 92.8241 10.3338C92.7281 10.4298 92.6801 10.5578 92.6801 10.7178V15.4858C92.6801 15.5711 92.6375 15.6138 92.5521 15.6138H90.7921C90.6961 15.6138 90.6481 15.5711 90.6481 15.4858V10.0938C90.6481 9.26177 90.6215 8.54177 90.5681 7.93377C90.5575 7.8591 90.5895 7.82177 90.6641 7.82177Z" fill="black"/>
</svg>
