<svg width="104" height="21" viewBox="0 0 104 21" fill="none" xmlns="http://www.w3.org/2000/svg">
<path d="M16.546 0.000976562C18.6385 0.00151382 20.2141 1.58362 20.2198 3.72852C20.2315 7.9869 20.2308 12.2455 20.2198 16.5039C20.2142 18.6444 18.6367 20.2271 16.5431 20.2285H3.73645C1.55234 20.228 0.00369284 18.6466 0.0020752 16.4053C-0.000708656 12.2106 -0.000708548 8.01591 0.0020752 3.82129C0.00346715 1.58165 1.55193 0.00151382 3.73938 0.000976562C8.0082 -9.77925e-05 12.2772 -9.78028e-05 16.546 0.000976562ZM14.629 7.2998C14.5249 7.29917 14.427 7.29941 14.3351 7.30176C13.8347 7.31459 13.5007 7.37594 13.1613 7.51562C13.1181 7.53337 13.0751 7.55286 13.0314 7.57324C12.9978 7.58894 12.9631 7.60376 12.9288 7.62109C12.886 7.64275 12.8443 7.66559 12.8038 7.68945L12.6857 7.76465C12.6541 7.78621 12.6238 7.80911 12.5939 7.83203C12.4438 7.94706 12.3145 8.07817 12.2072 8.22168C12.1653 8.27752 12.1272 8.33537 12.0919 8.39453C12.0764 8.42051 12.0622 8.44709 12.048 8.47363C12.0146 8.53593 11.9835 8.5991 11.9572 8.66406C11.933 8.72358 11.9129 8.78444 11.8947 8.8457C11.6628 9.62455 11.9098 10.5259 12.673 11.0684C12.9422 11.2598 13.2293 11.4144 13.5275 11.5479C13.6269 11.5924 13.7276 11.6344 13.8292 11.6748C14.0829 11.7755 14.3333 11.8902 14.5753 12.0176C14.6179 12.04 14.6586 12.0655 14.6954 12.0947C14.7139 12.1094 14.731 12.1251 14.7472 12.1416C14.8282 12.2241 14.8784 12.3304 14.8634 12.4678C14.8569 12.5272 14.8407 12.5782 14.8175 12.6221C14.7877 12.6784 14.7451 12.7217 14.6945 12.7568C14.6795 12.7672 14.6639 12.7764 14.6476 12.7852C14.5905 12.8158 14.526 12.8394 14.4572 12.8545C14.3423 12.8796 14.2246 12.8983 14.1075 12.9033C14.1018 12.9036 14.0957 12.9051 14.09 12.9053C14.0049 12.9079 13.9203 12.9074 13.8361 12.9053C13.246 12.8903 12.6775 12.7569 12.1486 12.4756C12.0329 12.4141 11.9545 12.3899 11.9025 12.3994C11.8154 12.4147 11.8014 12.5237 11.8107 12.709C11.8188 12.8743 11.824 13.0402 11.8243 13.2061C11.8247 13.3717 11.8209 13.5374 11.8097 13.7021C11.7907 13.9806 11.8977 14.1182 12.1486 14.2031C13.0275 14.5007 13.9243 14.5729 14.8273 14.3926C14.8925 14.3795 14.9563 14.3642 15.0187 14.3477C15.1047 14.3248 15.1873 14.2968 15.2677 14.2676C15.3397 14.2413 15.4094 14.2128 15.4767 14.1816C15.7463 14.0571 15.9766 13.8946 16.1622 13.7021C16.2176 13.6447 16.2704 13.586 16.3175 13.5234C16.3698 13.4542 16.4145 13.3806 16.4562 13.3057C16.4745 13.2728 16.4927 13.24 16.5089 13.2061C16.5693 13.0797 16.6166 12.9473 16.6466 12.8086C16.6576 12.7576 16.6663 12.7058 16.673 12.6533C16.6829 12.5757 16.6891 12.5001 16.6935 12.4268C16.7492 11.5002 16.3581 10.9056 15.3497 10.3936C14.9283 10.1796 14.4824 10.0174 14.0568 9.81152C13.8121 9.69315 13.5251 9.5599 13.6154 9.19922C13.6334 9.12716 13.6633 9.07225 13.6984 9.02734C13.7171 9.00346 13.7364 8.98248 13.7589 8.96484C13.8972 8.85594 14.0992 8.85506 14.2833 8.8457C14.3568 8.84198 14.431 8.8399 14.504 8.83984C15.0173 8.83962 15.5184 8.93262 15.9894 9.15625C16.0948 9.20628 16.1698 9.22507 16.2218 9.21484C16.2392 9.21153 16.2542 9.20515 16.2667 9.19531C16.2792 9.18534 16.2888 9.17171 16.297 9.15527C16.322 9.1058 16.3296 9.02702 16.3253 8.91992C16.3123 8.58935 16.305 8.25644 16.3273 7.92676C16.3455 7.65437 16.2288 7.5374 15.9913 7.47168C15.5443 7.34817 15.0904 7.30189 14.63 7.29883L14.629 7.2998ZM7.59485 5.17383C6.71479 5.15682 5.83314 5.2001 4.95325 5.17969C4.60956 5.17167 4.54237 5.29532 4.54602 5.61816C4.56168 6.99383 4.55286 8.37007 4.55286 9.74609L4.55481 11.8291C4.55498 12.5234 4.55361 13.218 4.547 13.9121C4.54428 14.2129 4.63166 14.3192 4.92786 14.3008C5.3107 14.2768 5.69666 14.2813 6.0802 14.2988C6.14298 14.3017 6.19487 14.2978 6.23645 14.2861C6.36056 14.251 6.39789 14.1484 6.39465 13.9658C6.38248 13.2654 6.4111 12.5636 6.38293 11.8643C6.38104 11.8175 6.38052 11.774 6.38196 11.7344C6.3835 11.6916 6.38714 11.6529 6.39368 11.6182C6.42339 11.4606 6.50993 11.3845 6.70813 11.3779C6.74833 11.3766 6.79309 11.3786 6.8429 11.3828C7.18139 11.4116 7.52256 11.4135 7.86243 11.3838C7.99839 11.3719 8.13426 11.3554 8.26965 11.333L8.47278 11.2949C8.95982 11.194 9.38893 10.9927 9.74817 10.7207C10.1077 10.4485 10.3969 10.1051 10.6046 9.7207C10.8123 9.33637 10.9388 8.91095 10.9708 8.47363C11.0029 8.03662 10.9407 7.58811 10.7736 7.15723C10.678 6.91081 10.5488 6.66968 10.382 6.44043C10.3389 6.38129 10.2946 6.32468 10.2491 6.27051C10.1127 6.10774 9.96572 5.96687 9.80969 5.8457C9.75773 5.80534 9.70443 5.76755 9.65051 5.73145C9.38072 5.5508 9.08722 5.42189 8.77649 5.33398C8.65214 5.2988 8.52503 5.26995 8.39563 5.24707C8.26631 5.22421 8.13461 5.20734 8.0011 5.19531C7.86743 5.18326 7.73185 5.17648 7.59485 5.17383Z" fill="black"/>
<path d="M6.39075 8.31714C6.39075 7.93462 6.40067 7.55155 6.38675 7.16956C6.37875 6.95001 6.43094 6.84041 6.66914 6.84596C7.18817 6.85796 7.71084 6.78686 8.21647 6.98153C8.74959 7.18694 9.0553 7.59006 9.08088 8.15077C9.11272 8.8501 8.87522 9.2876 8.31843 9.54602C7.75591 9.80695 7.15789 9.78008 6.56179 9.77095C6.36657 9.76791 6.39197 9.62768 6.39145 9.50322C6.38971 9.1078 6.39075 8.71256 6.39075 8.31714Z" fill="black"/>
<path d="M28.4965 15.5021V5.07014C28.4965 4.99547 28.5339 4.95814 28.6085 4.95814C29.4192 4.9368 30.4485 4.92614 31.6965 4.92614C33.1685 4.92614 34.2459 5.2568 34.9285 5.91814C35.6219 6.57947 35.9685 7.39547 35.9685 8.36614C35.9685 9.57147 35.5419 10.4675 34.6885 11.0541C33.8352 11.6408 32.7632 11.9341 31.4725 11.9341H30.5285V15.4861C30.5285 15.5715 30.4859 15.6141 30.4005 15.6141H28.6245C28.5392 15.6141 28.4965 15.5768 28.4965 15.5021ZM30.5285 6.46214V10.3981C30.6779 10.4195 31.0245 10.4301 31.5685 10.4301C32.2832 10.4301 32.8592 10.2755 33.2965 9.96614C33.7445 9.64614 33.9685 9.1288 33.9685 8.41414C33.9685 7.7848 33.7712 7.29947 33.3765 6.95814C32.9925 6.6168 32.4325 6.44614 31.6965 6.44614C31.5152 6.44614 31.3339 6.45147 31.1525 6.46214C30.9819 6.46214 30.8379 6.46214 30.7205 6.46214C30.6139 6.46214 30.5499 6.46214 30.5285 6.46214ZM37.601 15.4861V4.19014C37.601 4.11547 37.6384 4.07814 37.713 4.07814H39.521C39.5957 4.07814 39.633 4.11547 39.633 4.19014V8.33414C40.2304 7.8968 40.9344 7.67814 41.745 7.67814C42.5237 7.67814 43.1797 7.93414 43.713 8.44614C44.2464 8.94747 44.513 9.77414 44.513 10.9261V15.4861C44.513 15.5715 44.4704 15.6141 44.385 15.6141H42.625C42.529 15.6141 42.481 15.5715 42.481 15.4861V10.8781C42.481 10.3555 42.3637 9.95014 42.129 9.66214C41.905 9.37414 41.569 9.23014 41.121 9.23014C40.5664 9.23014 40.0704 9.42214 39.633 9.80614V15.5021C39.633 15.5768 39.5904 15.6141 39.505 15.6141H37.729C37.6437 15.6141 37.601 15.5715 37.601 15.4861ZM50.1237 7.67814C51.3397 7.67814 52.2943 8.0568 52.9877 8.81414C53.681 9.57147 54.0277 10.5315 54.0277 11.6941C54.0277 12.9528 53.665 13.9501 52.9397 14.6861C52.2143 15.4115 51.265 15.7741 50.0917 15.7741C48.801 15.7741 47.8197 15.3848 47.1477 14.6061C46.4757 13.8168 46.1397 12.8568 46.1397 11.7261C46.1397 10.5421 46.5023 9.57147 47.2277 8.81414C47.9637 8.0568 48.929 7.67814 50.1237 7.67814ZM50.0437 9.07014C49.489 9.07014 49.041 9.3048 48.6997 9.77414C48.3583 10.2328 48.1877 10.8728 48.1877 11.6941C48.1877 12.5155 48.3583 13.1661 48.6997 13.6461C49.041 14.1261 49.5157 14.3661 50.1237 14.3661C50.6463 14.3661 51.0837 14.1475 51.4357 13.7101C51.7877 13.2621 51.9637 12.6008 51.9637 11.7261C51.9637 10.9261 51.8037 10.2861 51.4837 9.80614C51.1637 9.31547 50.6837 9.07014 50.0437 9.07014ZM59.6289 14.3341V15.3101C59.6289 15.4168 59.5969 15.4808 59.5329 15.5021C59.1596 15.6835 58.6689 15.7741 58.0609 15.7741C56.6422 15.7741 55.9329 15.0221 55.9329 13.5181V9.27814H54.9569C54.8822 9.27814 54.8449 9.23014 54.8449 9.13414V7.95014C54.8449 7.8648 54.8876 7.82214 54.9729 7.82214H55.9329C55.9862 6.83014 56.0449 6.17947 56.1089 5.87014C56.1302 5.7848 56.1729 5.7368 56.2369 5.72614L57.9489 5.50214C58.0236 5.4808 58.0609 5.50747 58.0609 5.58214C58.0182 6.06214 57.9862 6.8088 57.9649 7.82214H59.5009C59.5756 7.82214 59.6129 7.8648 59.6129 7.95014V9.16614C59.6129 9.2408 59.5809 9.27814 59.5169 9.27814H57.9649V13.3101C57.9649 13.6728 58.0289 13.9395 58.1569 14.1101C58.2956 14.2701 58.5302 14.3501 58.8609 14.3501C59.0849 14.3501 59.3036 14.3128 59.5169 14.2381C59.5916 14.2168 59.6289 14.2488 59.6289 14.3341ZM64.5924 7.67814C65.8084 7.67814 66.7631 8.0568 67.4564 8.81414C68.1497 9.57147 68.4964 10.5315 68.4964 11.6941C68.4964 12.9528 68.1337 13.9501 67.4084 14.6861C66.6831 15.4115 65.7337 15.7741 64.5604 15.7741C63.2697 15.7741 62.2884 15.3848 61.6164 14.6061C60.9444 13.8168 60.6084 12.8568 60.6084 11.7261C60.6084 10.5421 60.9711 9.57147 61.6964 8.81414C62.4324 8.0568 63.3977 7.67814 64.5924 7.67814ZM64.5124 9.07014C63.9577 9.07014 63.5097 9.3048 63.1684 9.77414C62.8271 10.2328 62.6564 10.8728 62.6564 11.6941C62.6564 12.5155 62.8271 13.1661 63.1684 13.6461C63.5097 14.1261 63.9844 14.3661 64.5924 14.3661C65.1151 14.3661 65.5524 14.1475 65.9044 13.7101C66.2564 13.2621 66.4324 12.6008 66.4324 11.7261C66.4324 10.9261 66.2724 10.2861 65.9524 9.80614C65.6324 9.31547 65.1524 9.07014 64.5124 9.07014ZM74.687 9.66214C74.0897 9.2888 73.4657 9.10214 72.815 9.10214C72.4417 9.10214 72.1644 9.17147 71.983 9.31014C71.8124 9.4488 71.727 9.61414 71.727 9.80614C71.727 9.99814 71.8017 10.1688 71.951 10.3181C72.1004 10.4568 72.415 10.6221 72.895 10.8141C73.7804 11.1555 74.399 11.5181 74.751 11.9021C75.1137 12.2755 75.295 12.7608 75.295 13.3581C75.295 14.0835 75.0177 14.6701 74.463 15.1181C73.919 15.5555 73.1777 15.7741 72.239 15.7741C71.3004 15.7741 70.5324 15.6035 69.935 15.2621C69.871 15.2408 69.839 15.1875 69.839 15.1021V13.6141C69.839 13.5715 69.8497 13.5448 69.871 13.5341C69.903 13.5128 69.9297 13.5128 69.951 13.5341C70.6444 14.0461 71.3857 14.3021 72.175 14.3021C72.5484 14.3021 72.831 14.2381 73.023 14.1101C73.2257 13.9715 73.327 13.7955 73.327 13.5821C73.327 13.3581 73.247 13.1715 73.087 13.0221C72.927 12.8621 72.6124 12.6915 72.143 12.5101C71.2897 12.1795 70.6924 11.8275 70.351 11.4541C70.0204 11.0701 69.855 10.5901 69.855 10.0141C69.855 9.3528 70.1057 8.79814 70.607 8.35014C71.1084 7.90214 71.823 7.67814 72.751 7.67814C73.615 7.67814 74.2817 7.79547 74.751 8.03014C74.8044 8.06214 74.831 8.13147 74.831 8.23814V9.56614C74.831 9.69414 74.783 9.72614 74.687 9.66214ZM76.851 15.4861V4.19014C76.851 4.11547 76.8884 4.07814 76.963 4.07814H78.771C78.8457 4.07814 78.883 4.11547 78.883 4.19014V8.33414C79.4804 7.8968 80.1844 7.67814 80.995 7.67814C81.7737 7.67814 82.4297 7.93414 82.963 8.44614C83.4964 8.94747 83.763 9.77414 83.763 10.9261V15.4861C83.763 15.5715 83.7204 15.6141 83.635 15.6141H81.875C81.779 15.6141 81.731 15.5715 81.731 15.4861V10.8781C81.731 10.3555 81.6137 9.95014 81.379 9.66214C81.155 9.37414 80.819 9.23014 80.371 9.23014C79.8164 9.23014 79.3204 9.42214 78.883 9.80614V15.5021C78.883 15.5768 78.8404 15.6141 78.755 15.6141H76.979C76.8937 15.6141 76.851 15.5715 76.851 15.4861ZM89.3737 7.67814C90.5897 7.67814 91.5443 8.0568 92.2377 8.81414C92.931 9.57147 93.2777 10.5315 93.2777 11.6941C93.2777 12.9528 92.915 13.9501 92.1897 14.6861C91.4643 15.4115 90.515 15.7741 89.3417 15.7741C88.051 15.7741 87.0697 15.3848 86.3977 14.6061C85.7257 13.8168 85.3897 12.8568 85.3897 11.7261C85.3897 10.5421 85.7523 9.57147 86.4777 8.81414C87.2137 8.0568 88.179 7.67814 89.3737 7.67814ZM89.2937 9.07014C88.739 9.07014 88.291 9.3048 87.9497 9.77414C87.6083 10.2328 87.4377 10.8728 87.4377 11.6941C87.4377 12.5155 87.6083 13.1661 87.9497 13.6461C88.291 14.1261 88.7657 14.3661 89.3737 14.3661C89.8963 14.3661 90.3337 14.1475 90.6857 13.7101C91.0377 13.2621 91.2137 12.6008 91.2137 11.7261C91.2137 10.9261 91.0537 10.2861 90.7337 9.80614C90.4137 9.31547 89.9337 9.07014 89.2937 9.07014ZM98.3539 7.67814C99.6232 7.67814 100.594 8.04614 101.266 8.78214C101.938 9.51814 102.274 10.4461 102.274 11.5661C102.274 12.2595 102.146 12.8835 101.89 13.4381C101.645 13.9928 101.309 14.4355 100.882 14.7661C100.455 15.0968 99.9859 15.3475 99.4739 15.5181C98.9726 15.6888 98.4446 15.7741 97.8899 15.7741C97.4739 15.7741 97.1539 15.7368 96.9299 15.6621V18.9581C96.9299 19.0435 96.8872 19.0915 96.8019 19.1021C96.6312 19.1235 96.3966 19.1448 96.0979 19.1661C95.8099 19.1981 95.5592 19.2248 95.3459 19.2461C95.1326 19.2675 95.0152 19.2781 94.9939 19.2781C94.9299 19.2781 94.8979 19.2408 94.8979 19.1661V9.40614C94.8979 9.0648 94.8766 8.7448 94.8339 8.44614C94.8339 8.3928 94.8552 8.3608 94.8979 8.35014C96.2419 7.90214 97.3939 7.67814 98.3539 7.67814ZM98.1459 9.15014C97.7192 9.15014 97.3139 9.21414 96.9299 9.34214V14.1421C97.2606 14.2915 97.6286 14.3661 98.0339 14.3661C98.6312 14.3661 99.1379 14.1368 99.5539 13.6781C99.9806 13.2088 100.194 12.5421 100.194 11.6781C100.194 10.8675 100.007 10.2435 99.6339 9.80614C99.2712 9.3688 98.7752 9.15014 98.1459 9.15014Z" fill="black"/>
</svg>
