<svg width="116" height="15" viewBox="0 0 116 15" fill="none" xmlns="http://www.w3.org/2000/svg">
<g clip-path="url(#clip0_99_691)">
<path d="M35.9928 6.02224H33.9053V10.0453C33.9053 11.118 34.6132 11.1006 35.9928 11.034V12.6597C33.1989 12.9956 32.0871 12.224 32.0871 10.0453V6.02224H30.5381V4.27782H32.0871V2.02673L33.9053 1.4911V4.27782H35.9928V6.02224ZM43.952 4.27782H45.7703V12.6597H43.952V11.4524C43.3121 12.3412 42.3176 12.8783 41.0046 12.8783C38.7159 12.8783 36.8136 10.95 36.8136 8.46877C36.8136 5.97157 38.7159 4.06067 41.0046 4.06067C42.3176 4.06067 43.3121 4.5963 43.952 5.46779V4.27782ZM41.2912 11.1513C42.8069 11.1513 43.952 10.0279 43.952 8.46877C43.952 6.90965 42.8069 5.78627 41.2912 5.78627C39.7755 5.78627 38.6319 6.90965 38.6319 8.46877C38.6319 10.0279 39.7755 11.1513 41.2912 11.1513ZM48.8002 3.02126C48.1603 3.02126 47.6377 2.48418 47.6377 1.86459C47.6392 1.71259 47.6696 1.56203 47.7275 1.42161C47.786 1.2812 47.8716 1.1537 47.9794 1.0464C48.0872 0.93909 48.2151 0.854079 48.3558 0.796223C48.4962 0.738317 48.6482 0.707917 48.8002 0.707917C48.9522 0.707917 49.1027 0.738317 49.2446 0.796223C49.385 0.854129 49.5124 0.939541 49.621 1.04667C49.7281 1.15524 49.8135 1.28263 49.8729 1.42161C49.9308 1.56203 49.9612 1.71259 49.9612 1.86459C49.9612 2.48418 49.4401 3.02126 48.8002 3.02126ZM47.8911 12.6597V4.27782H49.7093V12.6597H47.8911ZM51.8142 12.6597V0.422729H53.6324V12.6597H51.8142ZM65.4337 4.27782H67.3533L64.7099 12.6597H62.9249L61.1747 7.01099L59.4071 12.6597H57.6222L54.9788 4.27782H56.8983L58.5313 10.0612L60.2989 4.27782H62.0332L63.7834 10.0612L65.4337 4.27782ZM69.6087 3.02126C68.9688 3.02126 68.4477 2.48418 68.4477 1.86459C68.4477 1.71259 68.4781 1.56203 68.536 1.42161C68.5954 1.28263 68.6808 1.15524 68.7879 1.04667C68.8965 0.939541 69.0239 0.854129 69.1643 0.796223C69.3062 0.738317 69.4567 0.707917 69.6087 0.707917C69.9163 0.707989 70.2114 0.82977 70.4295 1.04667C70.5381 1.15524 70.6235 1.28263 70.6814 1.42161C70.7408 1.56203 70.7712 1.71259 70.7712 1.86459C70.7712 2.48418 70.2486 3.02126 69.6087 3.02126ZM68.6996 12.6597V4.27782H70.5178V12.6597H68.6996ZM80.2837 7.51332V12.6597H78.4654V7.69862C78.4654 6.42324 77.7242 5.75298 76.5791 5.75298C75.3834 5.75298 74.441 6.45798 74.441 8.16766V12.6597H72.6227V4.27782H74.441V5.35053C74.9969 4.47904 75.906 4.06067 77.0511 4.06067C78.9359 4.06067 80.2837 5.33461 80.2837 7.51332ZM88.903 0.925064H90.7212V12.6597H88.903V11.4524C88.2631 12.3412 87.27 12.8783 85.957 12.8783C83.6668 12.8783 81.7646 10.95 81.7646 8.46877C81.7646 5.97157 83.6668 4.06067 85.957 4.06067C87.27 4.06067 88.2631 4.5963 88.903 5.46779V0.925064ZM86.2437 11.1513C87.7579 11.1513 88.903 10.0279 88.903 8.46877C88.903 6.90965 87.7579 5.78627 86.2437 5.78627C84.728 5.78627 83.5829 6.90965 83.5829 8.46877C83.5829 10.0279 84.728 11.1513 86.2437 11.1513ZM92.3716 8.46877C92.3716 5.97157 94.2738 4.06067 96.8158 4.06067C98.4662 4.06067 99.8964 4.91479 100.57 6.22346L99.0047 7.12824C98.6341 6.34072 97.8089 5.83694 96.7985 5.83694C95.3175 5.83694 94.1898 6.96032 94.1898 8.46877C94.1898 9.97722 95.3175 11.1006 96.7985 11.1006C97.8089 11.1006 98.6341 10.5809 99.038 9.81074L100.604 10.6981C99.8964 12.0227 98.4662 12.8783 96.8158 12.8783C94.2738 12.8783 92.3716 10.95 92.3716 8.46877ZM108.129 10.2957C108.129 11.9721 106.664 12.8783 104.846 12.8783C103.162 12.8783 101.951 12.1226 101.412 10.9167L102.977 10.0105C103.248 10.7662 103.921 11.2179 104.846 11.2179C105.655 11.2179 106.278 10.95 106.278 10.2798C106.278 8.78725 101.749 9.62544 101.749 6.62446C101.749 5.04942 103.113 4.06067 104.83 4.06067C106.21 4.06067 107.355 4.69764 107.944 5.80365L106.412 6.65921C106.11 6.00487 105.521 5.70376 104.83 5.70376C104.173 5.70376 103.601 5.9875 103.601 6.59117C103.601 8.11699 108.129 7.19484 108.129 10.2957ZM115.892 10.2957C115.892 11.9721 114.427 12.8783 112.608 12.8783C110.925 12.8783 109.712 12.1226 109.173 10.9167L110.739 10.0105C111.009 10.7662 111.682 11.2179 112.608 11.2179C113.416 11.2179 114.039 10.95 114.039 10.2798C114.039 8.78725 109.51 9.62544 109.51 6.62446C109.51 5.04942 110.874 4.06067 112.591 4.06067C113.972 4.06067 115.117 4.69764 115.706 5.80365L114.173 6.65921C113.871 6.00487 113.281 5.70376 112.591 5.70376C111.935 5.70376 111.362 5.9875 111.362 6.59117C111.362 8.11699 115.892 7.19484 115.892 10.2957Z" fill="black"/>
<path d="M12.0704 0C8.88122 0 6.88636 1.58807 6.0887 4.76422C7.28591 3.17614 8.68144 2.57971 10.2768 2.97637C11.1859 3.20365 11.8359 3.86088 12.5568 4.58905C13.7294 5.77323 15.0873 7.1456 18.0521 7.1456C21.2413 7.1456 23.2347 5.55753 24.0323 2.38138C22.8366 3.96946 21.441 4.56444 19.8457 4.16778C18.9366 3.94195 18.2852 3.28327 17.5657 2.55655C16.3931 1.37092 15.0352 0 12.0704 0ZM6.0887 7.1456C2.89953 7.1456 0.906115 8.73367 0.108459 11.9098C1.30422 10.3217 2.69975 9.72676 4.29506 10.1234C5.20563 10.3492 5.85563 11.0079 6.57511 11.7346C7.74771 12.9203 9.1056 14.2912 12.0704 14.2912C15.261 14.2912 17.2544 12.7031 18.0521 9.52698C16.8549 11.1151 15.4593 11.7115 13.8655 11.3148C12.9549 11.0876 12.3049 10.4303 11.584 9.70215C10.4114 8.51797 9.05349 7.1456 6.0887 7.1456Z" fill="black"/>
</g>
<defs>
<clipPath id="clip0_99_691">
<rect width="116" height="14.2912" fill="white"/>
</clipPath>
</defs>
</svg>
