<svg width="79" height="14" viewBox="0 0 79 14" fill="none" xmlns="http://www.w3.org/2000/svg">
<g clip-path="url(#clip0_99_749)">
<path fill-rule="evenodd" clip-rule="evenodd" d="M21.0693 0.0499268L14.3463 13.1926H8.03158L10.8451 7.74568H10.7189C8.39776 10.7588 4.93455 12.7424 0 13.1926V7.82109C0 7.82109 3.15675 7.63464 5.01251 5.68355H0V0.0500306H5.63352V4.68352L5.75996 4.683L8.06202 0.0500306H12.3225V4.65414L12.449 4.65394L14.8373 0.0499268H21.0693Z" fill="black"/>
<path d="M57.7299 11.742H59.5441V1.32776H57.7299V11.742Z" fill="black"/>
<path fill-rule="evenodd" clip-rule="evenodd" d="M47.7277 11.6354C48.1221 11.7994 48.5231 11.8813 48.9307 11.8813C49.6042 11.8813 50.2067 11.7174 50.7383 11.3896C51.27 11.0617 51.6821 10.6097 51.9745 10.0338C52.267 9.45335 52.4131 8.79544 52.4131 8.05993C52.4131 7.32442 52.2625 6.66649 51.9612 6.08608C51.66 5.50567 51.2413 5.05596 50.7051 4.73695C50.1691 4.41352 49.5599 4.25401 48.8775 4.25844C48.4433 4.25844 48.0268 4.34262 47.6281 4.51099C47.2293 4.67935 46.897 4.91861 46.6312 5.22875C46.6106 5.25237 46.5907 5.27622 46.5714 5.3003V1.33423H44.7504V11.7418H46.5581L46.5544 10.7695C46.6012 10.8268 46.6512 10.8828 46.7043 10.9376C46.9923 11.2345 47.3335 11.4671 47.7277 11.6354ZM49.5886 9.95401C49.2918 10.1356 48.9528 10.2265 48.5718 10.2265C48.1952 10.2265 47.8496 10.1335 47.535 9.94737C47.2204 9.75683 46.9701 9.49766 46.784 9.1698C46.6024 8.84194 46.5116 8.46977 46.5116 8.05329C46.5071 7.6368 46.5958 7.26463 46.7774 6.93676C46.9635 6.60446 47.2138 6.34749 47.5284 6.16583C47.843 5.97975 48.1907 5.88892 48.5718 5.89335C48.9528 5.88892 49.2918 5.97753 49.5886 6.15918C49.8899 6.33641 50.1203 6.59117 50.2798 6.92346C50.4437 7.25133 50.5257 7.62797 50.5257 8.05329C50.5257 8.4786 50.4437 8.85523 50.2798 9.18309C50.1203 9.51095 49.8899 9.76792 49.5886 9.95401Z" fill="black"/>
<path d="M23.6977 1.95911H25.7713L27.6261 8.7331L29.5994 1.95911H31.3273L33.4673 8.59717L35.2484 1.95911H37.1491L34.3445 11.742H32.5567L30.3807 5.25708L28.3831 11.742H26.5754L23.6977 1.95911Z" fill="black"/>
<path fill-rule="evenodd" clip-rule="evenodd" d="M40.2113 11.9146C39.489 11.919 38.8378 11.7595 38.2573 11.4361C37.6814 11.1082 37.2272 10.6541 36.8949 10.0737C36.5671 9.49326 36.4031 8.8309 36.4031 8.08655C36.4031 7.3644 36.5715 6.71085 36.9082 6.126C37.2449 5.54116 37.7013 5.08481 38.2772 4.75694C38.8532 4.42907 39.4957 4.26514 40.2046 4.26514C41.0021 4.26514 41.6999 4.44237 42.2981 4.79682C42.9006 5.15126 43.3503 5.65414 43.6472 6.30544C43.9485 6.95232 44.057 7.69445 43.9728 8.5318H38.2801C38.296 8.86543 38.3792 9.16898 38.5298 9.4423C38.6982 9.74359 38.933 9.97844 39.2342 10.1468C39.5355 10.3151 39.8723 10.3993 40.2445 10.3993C40.528 10.3949 40.7916 10.3462 41.0353 10.2532C41.279 10.1557 41.485 10.0249 41.6534 9.86105C41.8262 9.69709 41.948 9.511 42.0189 9.30279H43.9197C43.8045 9.81229 43.5741 10.2664 43.2285 10.6652C42.8829 11.0595 42.4487 11.3674 41.9259 11.589C41.403 11.8105 40.8315 11.919 40.2113 11.9146ZM38.5365 6.7042C38.4303 6.88936 38.3567 7.08874 38.3158 7.30235H42.0893C42.062 7.03248 41.9787 6.78658 41.8395 6.56464C41.68 6.30323 41.4629 6.10163 41.1882 5.95986C40.9135 5.81365 40.6034 5.74054 40.2578 5.74054C39.89 5.74054 39.5555 5.82472 39.2543 5.99308C38.953 6.16145 38.7137 6.39849 38.5365 6.7042Z" fill="black"/>
<path d="M53.749 4.41796C53.749 3.82425 53.8842 3.29701 54.1545 2.83623C54.4247 2.37101 54.8035 2.00991 55.2909 1.75294C55.7827 1.49153 56.3565 1.3564 57.0122 1.34753V2.96249C56.7065 2.96692 56.4451 3.03117 56.228 3.15523C56.0153 3.27485 55.8514 3.44987 55.7362 3.68026C55.6301 3.89236 55.5729 4.13826 55.5645 4.41796H56.9723V5.95317H55.5634V11.7418H53.749V5.95317H52.5793V4.41796H53.749Z" fill="black"/>
<path fill-rule="evenodd" clip-rule="evenodd" d="M64.1564 11.9014C63.4165 11.9014 62.7542 11.7396 62.1693 11.4162C61.5889 11.0884 61.1325 10.6364 60.8002 10.0605C60.4724 9.48002 60.3084 8.82211 60.3084 8.0866C60.3084 7.34671 60.4724 6.68653 60.8002 6.10612C61.1325 5.52128 61.5889 5.06713 62.1693 4.7437C62.7542 4.42026 63.4165 4.25854 64.1564 4.25854C64.9008 4.25854 65.5654 4.42026 66.1502 4.7437C66.7395 5.06713 67.1981 5.51906 67.5259 6.09947C67.8538 6.67988 68.0199 7.34226 68.0244 8.0866C68.0199 8.82211 67.8538 9.48002 67.5259 10.0605C67.2025 10.6364 66.7462 11.0884 66.1569 11.4162C65.5676 11.7396 64.9008 11.9014 64.1564 11.9014ZM64.1564 10.2333C64.5463 10.2333 64.8919 10.1447 65.1932 9.9674C65.4945 9.78576 65.7271 9.53317 65.891 9.20976C66.055 8.88191 66.137 8.50754 66.137 8.0866C66.137 7.66128 66.055 7.28466 65.891 6.9568C65.7271 6.62893 65.4945 6.37639 65.1932 6.19916C64.8919 6.0175 64.5463 5.92668 64.1564 5.92668C63.771 5.92668 63.4276 6.0175 63.1264 6.19916C62.8294 6.37639 62.599 6.62893 62.4352 6.9568C62.2712 7.28466 62.1915 7.66128 62.1959 8.0866C62.1959 8.50754 62.2778 8.88191 62.4418 9.20976C62.6101 9.53317 62.8405 9.78576 63.133 9.9674C63.4298 10.1447 63.771 10.2333 64.1564 10.2333Z" fill="black"/>
<path d="M69.985 4.41809H67.9647L70.1511 11.7419H71.919L73.3571 7.0642L74.9099 11.7419H76.651L78.844 4.41809H77.0168L75.7728 8.9767L74.3981 4.41809H72.6301L71.2619 9.07716L69.985 4.41809Z" fill="black"/>
</g>
<defs>
<clipPath id="clip0_99_749">
<rect width="78.844" height="13.2137" fill="white"/>
</clipPath>
</defs>
</svg>
