<svg width="113" height="21" viewBox="0 0 113 21" fill="none" xmlns="http://www.w3.org/2000/svg">
<path d="M16.546 0.000976562C18.6386 0.00151382 20.2139 1.58362 20.2198 3.72852C20.2313 7.9867 20.2317 12.2455 20.2208 16.5039C20.2151 18.6444 18.6366 20.2271 16.543 20.2285H3.73639C1.5523 20.2282 0.00365375 18.6466 0.00201416 16.4053C-0.000769686 12.2107 -0.000595597 8.0159 0.00201416 3.82129C0.00340611 1.58184 1.55169 0.0016929 3.73932 0.000976562C8.0082 -9.78223e-05 12.2771 -9.78282e-05 16.546 0.000976562ZM15.9288 7.8584C14.7425 7.35338 13.5364 7.39239 12.5499 8.34082C11.3277 9.51596 11.1438 11.0022 11.6182 12.5801C11.971 13.7535 12.8053 14.4247 13.9796 14.6357C14.7037 14.7658 15.4288 14.7266 16.1475 14.5723C16.6579 14.4621 16.913 14.1382 16.9131 13.6006V13.5684C16.9131 13.4085 16.9017 13.2473 16.9161 13.0889C16.9375 12.8543 16.8957 12.765 16.6378 12.8604C16.1751 13.0316 15.6844 13.0817 15.1964 13.0908C14.2059 13.1093 13.5517 12.6618 13.336 11.8643C13.2811 11.6613 13.2953 11.5745 13.5342 11.582C14.4996 11.6121 15.4664 11.6023 16.4317 11.6123C17.5972 11.6243 17.4212 11.748 17.4776 10.6211C17.4786 10.5999 17.4785 10.5788 17.4776 10.5576C17.4249 9.3769 17.0609 8.34076 15.9288 7.8584ZM7.6817 5.51465C7.05863 5.52199 6.43466 5.52064 5.81158 5.51562C5.64853 5.51446 5.55619 5.55707 5.56744 5.74805C5.58275 6.008 5.50616 6.25325 5.42389 6.49512C4.89845 8.04127 4.37201 9.58745 3.84674 11.1338C3.50223 12.1479 3.15802 13.1625 2.81647 14.1777C2.70095 14.5212 2.70757 14.5264 3.06842 14.5273C3.46289 14.5282 3.85824 14.5149 4.25201 14.5322C4.46852 14.5419 4.56683 14.4602 4.62701 14.252C4.78603 13.7017 4.96785 13.1582 5.1319 12.6094C5.17713 12.4587 5.23722 12.384 5.40924 12.3857C6.31268 12.3949 7.21674 12.3925 8.12018 12.3877C8.26562 12.3869 8.34238 12.4293 8.38776 12.582C8.49021 12.9276 8.61252 13.2672 8.73151 13.6074C8.83573 13.906 8.84144 14.2972 9.07233 14.4775C9.27807 14.6379 9.58553 14.5415 9.83112 14.5342L9.9317 14.5371C10.2326 14.5371 10.4826 14.5307 10.7315 14.54C10.9351 14.5475 11.0129 14.5023 10.9317 14.2695C9.94029 11.4262 8.95445 8.58011 7.97174 5.7334C7.91904 5.58082 7.84485 5.51271 7.6817 5.51465ZM7.3692 9.20117C7.49842 9.62737 7.62707 10.0537 7.7608 10.4785C7.79699 10.5935 7.82855 10.6774 7.65143 10.6758C7.01086 10.6697 6.36993 10.6738 5.71198 10.6738C6.05805 9.49581 6.39525 8.34742 6.74811 7.14648C6.96543 7.86569 7.16685 8.5339 7.3692 9.20117ZM14.4346 9.07031C15.1019 9.03328 15.572 9.38281 15.7051 9.99023C15.7585 10.2337 15.6742 10.3334 15.4493 10.3359C15.117 10.3395 14.7845 10.3369 14.4522 10.3369V10.3428C14.1306 10.3428 13.809 10.3412 13.4874 10.3438C13.371 10.3446 13.2904 10.3369 13.3067 10.1729C13.3626 9.61035 13.8756 9.10129 14.4346 9.07031Z" fill="black"/>
<path d="M34.3048 12.6861H30.5928L29.6648 15.4861C29.6542 15.5715 29.5955 15.6141 29.4888 15.6141H27.8088C27.7022 15.6141 27.6648 15.5608 27.6968 15.4541L31.0248 5.95014C31.0995 5.79014 31.1475 5.49147 31.1688 5.05414C31.1688 4.99014 31.2062 4.95814 31.2808 4.95814H33.5848C33.6382 4.95814 33.6808 4.9848 33.7128 5.03814L37.4248 15.4701C37.4568 15.5661 37.4248 15.6141 37.3288 15.6141H35.4408C35.3662 15.6141 35.3128 15.5768 35.2808 15.5021L34.3048 12.6861ZM31.0088 11.1341H33.8888C33.8462 10.9848 33.6222 10.3075 33.2168 9.10214C32.8222 7.88614 32.5608 7.05414 32.4328 6.60614H32.4168C32.2888 7.15014 31.8195 8.65947 31.0088 11.1341ZM43.67 9.27814H40.934V15.4541C40.934 15.5608 40.886 15.6141 40.79 15.6141H39.046C38.95 15.6141 38.902 15.5661 38.902 15.4701V9.27814H37.942C37.8673 9.27814 37.83 9.23547 37.83 9.15014V7.95014C37.83 7.8648 37.8726 7.82214 37.958 7.82214H38.902V7.10214C38.902 6.4408 39.014 5.87013 39.238 5.39013C39.7073 4.4088 40.534 3.91814 41.718 3.91814C42.1446 3.91814 42.486 3.97147 42.742 4.07814C42.806 4.1208 42.838 4.17414 42.838 4.23814V5.59813C42.838 5.68347 42.8006 5.71547 42.726 5.69414C42.534 5.59814 42.2993 5.55014 42.022 5.55014C41.2966 5.55014 40.934 6.03014 40.934 6.99014V7.82214H43.67C43.766 6.63814 43.8246 5.98214 43.846 5.85414C43.8673 5.7688 43.91 5.7208 43.974 5.71014L45.67 5.39013C45.7553 5.3688 45.798 5.39547 45.798 5.47014C45.7553 5.90747 45.7233 6.69147 45.702 7.82214H47.238C47.3126 7.82214 47.35 7.85947 47.35 7.93414V9.16614C47.35 9.2408 47.3126 9.27814 47.238 9.27814H45.702V13.2941C45.702 13.6781 45.766 13.9555 45.894 14.1261C46.022 14.2861 46.2566 14.3661 46.598 14.3661C46.822 14.3661 47.046 14.3288 47.27 14.2541C47.2913 14.2435 47.3126 14.2488 47.334 14.2701C47.3553 14.2915 47.366 14.3235 47.366 14.3661V15.3101C47.366 15.4061 47.3286 15.4755 47.254 15.5181C46.902 15.6888 46.4113 15.7741 45.782 15.7741C44.374 15.7741 43.67 15.0221 43.67 13.5181V9.27814ZM53.6071 12.0941H50.3911C50.4017 12.7448 50.6044 13.2675 50.9991 13.6621C51.4044 14.0461 51.9911 14.2381 52.7591 14.2381C53.5164 14.2381 54.1777 14.1048 54.7431 13.8381C54.8071 13.8168 54.8391 13.8435 54.8391 13.9181V15.1181C54.8391 15.2141 54.8071 15.2781 54.7431 15.3101C54.0711 15.6195 53.2657 15.7741 52.3271 15.7741C51.6124 15.7741 50.9884 15.6621 50.4551 15.4381C49.9217 15.2141 49.5057 14.9101 49.2071 14.5261C48.9084 14.1421 48.6844 13.7261 48.5351 13.2781C48.3964 12.8195 48.3271 12.3288 48.3271 11.8061C48.3271 10.6435 48.6631 9.66747 49.3351 8.87814C50.0177 8.07814 50.9457 7.67814 52.1191 7.67814C53.2284 7.67814 54.0604 8.0088 54.6151 8.67014C55.1697 9.33147 55.4471 10.1048 55.4471 10.9901C55.4471 11.3208 55.4257 11.6248 55.3831 11.9021C55.3724 11.9768 55.3297 12.0195 55.2551 12.0301C54.9564 12.0728 54.4071 12.0941 53.6071 12.0941ZM50.3911 10.8461H52.6631C53.1644 10.8461 53.4471 10.8355 53.5111 10.8141C53.5217 10.7715 53.5271 10.6968 53.5271 10.5901C53.5271 10.1848 53.4097 9.82214 53.1751 9.50214C52.9511 9.18214 52.5777 9.02214 52.0551 9.02214C51.5537 9.02214 51.1591 9.19814 50.8711 9.55014C50.5937 9.89147 50.4337 10.3235 50.3911 10.8461ZM57.0861 7.82214H58.6701C58.7554 7.82214 58.8141 7.87014 58.8461 7.96614C58.9207 8.1688 58.9794 8.48347 59.0221 8.91014C59.6514 8.0888 60.5047 7.67814 61.5821 7.67814C61.6567 7.67814 61.6941 7.71547 61.6941 7.79014V9.43814C61.6941 9.52347 61.6514 9.56614 61.5661 9.56614C60.5954 9.50214 59.8221 9.75814 59.2461 10.3341C59.1501 10.4301 59.1021 10.5581 59.1021 10.7181V15.4861C59.1021 15.5715 59.0594 15.6141 58.9741 15.6141H57.2141C57.1181 15.6141 57.0701 15.5715 57.0701 15.4861V10.0941C57.0701 9.26214 57.0434 8.54214 56.9901 7.93414C56.9794 7.85947 57.0114 7.82214 57.0861 7.82214ZM73.6752 14.2061L73.4352 15.4861C73.4245 15.5715 73.3765 15.6141 73.2912 15.6141H66.8752C66.7792 15.6141 66.7312 15.5661 66.7312 15.4701V5.08613C66.7312 5.0008 66.7739 4.95814 66.8592 4.95814H73.0832C73.1685 4.95814 73.2219 4.99547 73.2432 5.07014L73.4192 6.35013C73.4405 6.44613 73.4032 6.49413 73.3072 6.49413H68.7632V9.40614H72.8752C72.9499 9.40614 72.9872 9.4488 72.9872 9.53414V10.8461C72.9872 10.9208 72.9445 10.9581 72.8592 10.9581H68.7632V14.0781H73.5632C73.6485 14.0781 73.6859 14.1208 73.6752 14.2061ZM77.3368 15.6141H75.5928C75.4968 15.6141 75.4488 15.5661 75.4488 15.4701V9.27814H74.4728C74.4088 9.27814 74.3768 9.24614 74.3768 9.18214V7.95014C74.3768 7.8648 74.4142 7.82214 74.4888 7.82214H75.4488V7.11814C75.4595 6.09414 75.7155 5.3048 76.2168 4.75014C76.7182 4.19547 77.3582 3.91814 78.1368 3.91814C78.5422 3.91814 78.8462 3.9608 79.0488 4.04613C79.1128 4.06747 79.1448 4.11547 79.1448 4.19014V5.51814C79.1448 5.5928 79.1022 5.6248 79.0168 5.61414C78.8888 5.57147 78.7182 5.55014 78.5048 5.55014C77.8222 5.55014 77.4808 6.05147 77.4808 7.05414V7.82214H80.2488V7.10214C80.2488 6.13147 80.4888 5.35814 80.9688 4.78214C81.4595 4.20614 82.1422 3.91814 83.0168 3.91814C83.4328 3.91814 83.7582 3.97147 83.9928 4.07814C84.0675 4.09947 84.1048 4.1528 84.1048 4.23814V5.58214C84.1048 5.67814 84.0675 5.71014 83.9928 5.67813C83.7582 5.5928 83.5395 5.55014 83.3368 5.55014C83.0062 5.55014 82.7448 5.65147 82.5528 5.85414C82.3608 6.04614 82.2648 6.4248 82.2648 6.99014V7.82214H83.6728C83.7475 7.82214 83.7848 7.8648 83.7848 7.95014V9.15014C83.7848 9.23547 83.7475 9.27814 83.6728 9.27814H82.2648V15.4701C82.2648 15.5661 82.2222 15.6141 82.1368 15.6141H80.3768C80.2915 15.6141 80.2488 15.5661 80.2488 15.4701V9.27814H77.4808V15.4541C77.4808 15.5608 77.4328 15.6141 77.3368 15.6141ZM89.7165 12.0941H86.5005C86.5111 12.7448 86.7138 13.2675 87.1085 13.6621C87.5138 14.0461 88.1005 14.2381 88.8685 14.2381C89.6258 14.2381 90.2871 14.1048 90.8525 13.8381C90.9165 13.8168 90.9485 13.8435 90.9485 13.9181V15.1181C90.9485 15.2141 90.9165 15.2781 90.8525 15.3101C90.1805 15.6195 89.3751 15.7741 88.4365 15.7741C87.7218 15.7741 87.0978 15.6621 86.5645 15.4381C86.0311 15.2141 85.6151 14.9101 85.3165 14.5261C85.0178 14.1421 84.7938 13.7261 84.6445 13.2781C84.5058 12.8195 84.4365 12.3288 84.4365 11.8061C84.4365 10.6435 84.7725 9.66747 85.4445 8.87814C86.1271 8.07814 87.0551 7.67814 88.2285 7.67814C89.3378 7.67814 90.1698 8.0088 90.7245 8.67014C91.2791 9.33147 91.5565 10.1048 91.5565 10.9901C91.5565 11.3208 91.5351 11.6248 91.4925 11.9021C91.4818 11.9768 91.4391 12.0195 91.3645 12.0301C91.0658 12.0728 90.5165 12.0941 89.7165 12.0941ZM86.5005 10.8461H88.7725C89.2738 10.8461 89.5565 10.8355 89.6205 10.8141C89.6311 10.7715 89.6365 10.6968 89.6365 10.5901C89.6365 10.1848 89.5191 9.82214 89.2845 9.50214C89.0605 9.18214 88.6871 9.02214 88.1645 9.02214C87.6631 9.02214 87.2685 9.19814 86.9805 9.55014C86.7031 9.89147 86.5431 10.3235 86.5005 10.8461ZM98.8416 14.0621V15.3421C98.8416 15.4168 98.8149 15.4648 98.7616 15.4861C98.2922 15.6781 97.6789 15.7741 96.9216 15.7741C95.6629 15.7741 94.6762 15.4008 93.9616 14.6541C93.2469 13.9075 92.8896 12.9421 92.8896 11.7581C92.8896 10.5741 93.2842 9.59814 94.0736 8.83014C94.8629 8.06214 95.8922 7.67814 97.1616 7.67814C97.8762 7.67814 98.4042 7.7528 98.7456 7.90214C98.8096 7.95547 98.8416 8.01414 98.8416 8.07814L98.8256 9.35814C98.8256 9.4648 98.7829 9.4968 98.6976 9.45414C98.3136 9.26214 97.8496 9.16614 97.3056 9.16614C96.6016 9.16614 96.0362 9.39547 95.6096 9.85414C95.1936 10.3128 94.9856 10.9261 94.9856 11.6941C94.9856 12.5155 95.2149 13.1448 95.6736 13.5821C96.1322 14.0088 96.6869 14.2221 97.3376 14.2221C97.8816 14.2221 98.3456 14.1421 98.7296 13.9821C98.8042 13.9501 98.8416 13.9768 98.8416 14.0621ZM104.707 14.3341V15.3101C104.707 15.4168 104.675 15.4808 104.611 15.5021C104.238 15.6835 103.747 15.7741 103.139 15.7741C101.721 15.7741 101.011 15.0221 101.011 13.5181V9.27814H100.035C99.9607 9.27814 99.9233 9.23014 99.9233 9.13414V7.95014C99.9233 7.8648 99.966 7.82214 100.051 7.82214H101.011C101.065 6.83014 101.123 6.17947 101.187 5.87014C101.209 5.7848 101.251 5.7368 101.315 5.72614L103.027 5.50214C103.102 5.4808 103.139 5.50747 103.139 5.58214C103.097 6.06214 103.065 6.8088 103.043 7.82214H104.579C104.654 7.82214 104.691 7.8648 104.691 7.95014V9.16614C104.691 9.2408 104.659 9.27814 104.595 9.27814H103.043V13.3101C103.043 13.6728 103.107 13.9395 103.235 14.1101C103.374 14.2701 103.609 14.3501 103.939 14.3501C104.163 14.3501 104.382 14.3128 104.595 14.2381C104.67 14.2168 104.707 14.2488 104.707 14.3341ZM110.765 9.66214C110.168 9.2888 109.544 9.10214 108.893 9.10214C108.52 9.10214 108.243 9.17147 108.061 9.31014C107.891 9.4488 107.805 9.61414 107.805 9.80614C107.805 9.99814 107.88 10.1688 108.029 10.3181C108.179 10.4568 108.493 10.6221 108.973 10.8141C109.859 11.1555 110.477 11.5181 110.829 11.9021C111.192 12.2755 111.373 12.7608 111.373 13.3581C111.373 14.0835 111.096 14.6701 110.541 15.1181C109.997 15.5555 109.256 15.7741 108.317 15.7741C107.379 15.7741 106.611 15.6035 106.013 15.2621C105.949 15.2408 105.917 15.1875 105.917 15.1021V13.6141C105.917 13.5715 105.928 13.5448 105.949 13.5341C105.981 13.5128 106.008 13.5128 106.029 13.5341C106.723 14.0461 107.464 14.3021 108.253 14.3021C108.627 14.3021 108.909 14.2381 109.101 14.1101C109.304 13.9715 109.405 13.7955 109.405 13.5821C109.405 13.3581 109.325 13.1715 109.165 13.0221C109.005 12.8621 108.691 12.6915 108.221 12.5101C107.368 12.1795 106.771 11.8275 106.429 11.4541C106.099 11.0701 105.933 10.5901 105.933 10.0141C105.933 9.3528 106.184 8.79814 106.685 8.35014C107.187 7.90214 107.901 7.67814 108.829 7.67814C109.693 7.67814 110.36 7.79547 110.829 8.03014C110.883 8.06214 110.909 8.13147 110.909 8.23814V9.56614C110.909 9.69414 110.861 9.72614 110.765 9.66214Z" fill="black"/>
</svg>
