<svg width="73" height="21" viewBox="0 0 73 21" fill="none" xmlns="http://www.w3.org/2000/svg">
<path d="M24.4703 2.69556V16.2871L26.2159 16.2937V9.82443H30.4333V8.11217H26.2159V4.40782H31.7058V2.69556H24.4703ZM34.8572 5.45383C35.4901 5.45383 35.9965 4.94082 35.9965 4.31454C35.9965 3.68827 35.4835 3.17526 34.8572 3.17526C34.2242 3.17526 33.7179 3.68827 33.7179 4.31454C33.7179 4.94082 34.2309 5.45383 34.8572 5.45383ZM33.9711 7.1661V16.2871H35.7166V7.1661H33.9711Z" fill="black"/>
<path fill-rule="evenodd" clip-rule="evenodd" d="M42.1993 6.89966C39.8741 6.89966 38.2551 8.8651 38.2551 11.197C38.2551 13.5288 39.8741 15.4943 42.1993 15.4943C43.2653 15.4943 44.1381 15.0812 44.7777 14.415V15.6209C44.7777 17.1333 43.5917 18.3925 42.0394 18.3925C41.4797 18.3925 40.9267 18.1793 40.487 17.8728L39.6076 19.3919C40.3071 19.8449 41.1399 20.1047 42.0327 20.1047C44.5112 20.1047 46.5166 18.0993 46.5166 15.6209V7.16616H44.7777V7.97898C44.1381 7.31273 43.2653 6.89966 42.1993 6.89966ZM40.0073 11.197C40.0073 9.75121 41.1133 8.61192 42.3925 8.61192C43.6717 8.61192 44.7777 9.75121 44.7777 11.197C44.7777 12.6427 43.6717 13.782 42.3925 13.782C41.1133 13.782 40.0073 12.6427 40.0073 11.197Z" fill="black"/>
<path d="M52.8259 8.61192C51.7932 8.61192 50.9538 9.49137 50.9538 10.5241V16.2871H49.2082V7.16616H50.9538V7.99897C51.4668 7.33938 52.2196 6.89966 53.2057 6.89966C54.4316 6.89966 55.371 7.50595 55.9173 8.4387C56.5236 7.53926 57.5097 6.89966 58.7023 6.89966C60.6943 6.89966 61.9336 8.50532 61.9402 10.4907V16.2871H60.1947V10.5174C60.1947 9.48471 59.3552 8.60526 58.3225 8.60526C57.2898 8.60526 56.4503 9.48471 56.4503 10.5174V16.2871H54.7048V10.5174C54.6981 9.48471 53.8586 8.61192 52.8259 8.61192Z" fill="black"/>
<path fill-rule="evenodd" clip-rule="evenodd" d="M71.2544 8.19885C70.4749 7.39268 69.4089 6.89966 68.1763 6.89966C65.5779 6.89966 63.7258 9.10495 63.7258 11.73C63.7258 14.355 65.5713 16.5603 68.1763 16.5603C69.4089 16.5603 70.4749 16.0606 71.2544 15.2611V16.2871H73V7.16616H71.2544V8.19885ZM65.478 11.73C65.478 9.99106 66.8105 8.61192 68.3695 8.61192C69.9219 8.61192 71.2611 9.9844 71.2611 11.73C71.2611 13.4689 69.9286 14.848 68.3695 14.848C66.8105 14.8414 65.478 13.4689 65.478 11.73Z" fill="black"/>
<path d="M15.2002 0C17.2987 0.000105425 18.9999 1.70128 19 3.7998V15.2002C18.9999 17.2987 17.2987 18.9999 15.2002 19H3.7998C1.70128 18.9999 0.000105578 17.2987 0 15.2002V3.7998C0.000105425 1.70128 1.70128 0.000105578 3.7998 0H15.2002ZM9.78125 3.04004V3.04492H7.55371C6.31823 3.04492 5.32034 4.04285 5.32031 5.27832C5.32033 6.48952 6.28739 7.47717 7.49609 7.50781C6.2872 7.53821 5.32035 8.52792 5.32031 9.73926C5.32033 10.9506 6.2872 11.9393 7.49609 11.9697C6.2872 12.0001 5.32034 12.9889 5.32031 14.2002C5.32033 15.4357 6.31823 16.4336 7.55371 16.4336C8.78886 16.4332 9.78611 15.4304 9.78613 14.2002V9.83398C9.83606 11.0207 10.816 11.9727 12.0146 11.9727C13.2498 11.9723 14.247 10.9694 14.2471 9.73926C14.247 8.50403 13.2447 7.50623 12.0146 7.50586C10.8114 7.50586 9.83636 8.45735 9.78613 9.64355V7.50586H12.0146C13.2447 7.50549 14.247 6.50863 14.2471 5.27344C14.2471 4.04323 13.2498 3.04041 12.0146 3.04004H9.78125Z" fill="black"/>
</svg>
