<svg width="67" height="22" viewBox="0 0 67 22" fill="none" xmlns="http://www.w3.org/2000/svg">
<path fill-rule="evenodd" clip-rule="evenodd" d="M7.26573 7.12041H14.5315V0H0.145317V0.0726575L7.26573 7.12041Z" fill="black"/>
<path fill-rule="evenodd" clip-rule="evenodd" d="M7.26573 7.12036H0V14.2408H14.3861V14.1681L7.26573 7.12036Z" fill="black"/>
<path fill-rule="evenodd" clip-rule="evenodd" d="M0.0726585 14.1682H7.26573V21.3613L0.0726585 14.1682Z" fill="black"/>
<path d="M24.4129 14.1681V10.2446H28.6996V8.42821H24.4129V5.81255H29.0629V3.92346H22.3058V14.0955H24.4129V14.1681Z" fill="black"/>
<path d="M34.4396 6.75713C34.2942 6.68447 34.0036 6.61182 33.6403 6.61182C32.9138 6.61182 32.3325 6.9751 31.9692 7.4837V6.75713H29.9348V14.1682H31.9692V9.59076C32.1145 8.93685 32.6958 8.57356 33.3497 8.57356C33.713 8.57356 34.0763 8.64622 34.3669 8.79153V6.75713H34.4396Z" fill="black"/>
<path d="M41.2693 14.1682V9.44545C41.2693 7.70167 40.1068 6.61182 38.1451 6.61182C36.4739 6.61182 35.2388 7.62902 35.0208 9.00951H36.9826C37.1279 8.57356 37.4912 8.28293 38.0724 8.28293C38.8716 8.28293 39.3076 8.79153 39.3076 9.44545V9.95405C39.017 9.73608 38.2904 9.51811 37.6365 9.51811C36.038 9.51811 34.8028 10.4627 34.8028 11.9158C34.8028 13.4416 36.038 14.3135 37.5638 14.3135C38.363 14.3135 39.0896 14.0229 39.3802 13.8049V14.1682H41.2693ZM39.3076 12.1338C39.0896 12.4971 38.581 12.7877 37.9998 12.7877C37.3458 12.7877 36.6919 12.4971 36.6919 11.8431C36.6919 11.1892 37.3458 10.8986 37.9998 10.8986C38.581 10.8986 39.1623 11.1166 39.3076 11.5525V12.1338Z" fill="black"/>
<path d="M48.5351 7.55636C48.0991 6.9751 47.4452 6.61182 46.5733 6.61182C45.7741 6.61182 45.0475 6.90245 44.6842 7.41105V6.82979H42.6498V14.2408H44.6842V9.44545C44.8295 8.79153 45.3381 8.50091 45.8467 8.50091C46.5733 8.50091 46.8639 9.00951 46.8639 9.80874V14.2408H48.8983V9.44545C49.0437 8.79153 49.4796 8.50091 50.0609 8.50091C50.7874 8.50091 51.1507 9.00951 51.1507 9.80874V14.2408H53.1851V9.37279C53.1851 7.70168 52.2406 6.61182 50.7148 6.61182C49.7702 6.61182 49.0437 7.04776 48.5351 7.55636Z" fill="black"/>
<path d="M59.0704 11.7705C58.925 12.4244 58.4164 12.715 57.6899 12.715C56.7453 12.715 56.1641 12.0611 56.0914 10.9713H61.0321V10.3173C61.0321 8.13762 59.8696 6.61182 57.6899 6.61182C55.6555 6.61182 54.1297 8.28293 54.1297 10.4627C54.1297 12.715 55.5828 14.3135 57.6899 14.3135C59.579 14.3135 60.6688 13.2963 60.9595 11.6978H59.0704V11.7705ZM57.6899 8.28293C58.5618 8.28293 58.9977 8.86419 58.9977 9.66342H56.1641C56.382 8.79153 56.8906 8.28293 57.6899 8.28293Z" fill="black"/>
<path d="M66.4814 6.75713C66.3361 6.68447 66.0454 6.61182 65.6821 6.61182C64.9556 6.61182 64.3743 6.9751 64.011 7.4837V6.75713H61.9766V14.1682H64.011V9.59076C64.1563 8.93685 64.7376 8.57356 65.3915 8.57356C65.7548 8.57356 66.1181 8.64622 66.4087 8.79153V6.75713H66.4814Z" fill="black"/>
</svg>
