<svg width="50" height="17" viewBox="0 0 50 17" fill="none" xmlns="http://www.w3.org/2000/svg">
<path d="M25.5375 2.05713H27.397V11.2467C27.397 13.6701 26.2907 15.3618 23.7255 15.3618C22.7604 15.3618 22.0072 15.2019 21.4897 15.0188V13.2588C22.0547 13.4876 22.7373 13.6018 23.4198 13.6018C24.9968 13.6018 25.5381 12.6875 25.5381 11.3614V2.05713H25.5375Z" fill="black"/>
<path d="M30.8098 1.34863C31.5392 1.34863 32.0574 1.78314 32.0574 2.56005C32.0574 3.33696 31.5398 3.77147 30.8098 3.77147C30.0798 3.77147 29.5622 3.33696 29.5622 2.56005C29.5622 1.78314 30.0798 1.34863 30.8098 1.34863ZM29.8916 5.21172H31.6805V15.2703H29.8916V5.21172Z" fill="black"/>
<path d="M36.1052 15.2704H34.3632V5.21179H36.1052V6.97185C36.7171 5.78304 37.7528 4.93719 39.7767 5.05133V6.74302C37.4935 6.51418 36.1052 7.17752 36.1052 9.32632V15.2698V15.2704Z" fill="black"/>
<path d="M48.1324 13.4644C47.4736 14.7906 46.226 15.4759 44.6253 15.4759C41.8714 15.4759 40.4831 13.213 40.4831 10.241C40.4831 7.26891 41.9426 5.00598 44.8372 5.00598C46.3436 5.00598 47.5205 5.66876 48.1324 6.97171V5.21165H49.9213V15.2703H48.1324V13.4644ZM45.096 13.8758C46.6967 13.8758 48.1087 12.8926 48.1087 10.6523V9.85222C48.1087 7.61189 46.8142 6.62874 45.2841 6.62874C43.2834 6.62874 42.2477 7.90909 42.2477 10.2404C42.2714 12.6638 43.2596 13.8752 45.0954 13.8752L45.096 13.8758Z" fill="black"/>
<path d="M16.1932 0H8.04944C8.04944 1.96573 9.69706 3.56645 11.721 3.56645H13.2273V4.96094C13.2273 6.92667 14.875 8.52739 16.8989 8.52739V0.686509C16.8989 0.297771 16.5932 0.000565579 16.1926 0.000565579L16.1932 0Z" fill="black"/>
<path d="M12.1685 3.93188H4.02472C4.02472 5.89761 5.67234 7.49833 7.69626 7.49833H9.20263V8.91542C9.20263 10.8812 10.8502 12.4819 12.8742 12.4819V4.61783C12.8742 4.25225 12.5679 3.93188 12.1679 3.93188H12.1685Z" fill="black"/>
<path d="M8.14373 7.88643H0C0 9.85216 1.64762 11.4523 3.67155 11.4523H5.17791V12.8468C5.17791 14.8125 6.82553 16.4127 8.84945 16.4127V8.57181C8.84945 8.18307 8.52004 7.88586 8.14317 7.88586L8.14373 7.88643Z" fill="black"/>
</svg>
