<svg width="57" height="23" viewBox="0 0 57 23" fill="none" xmlns="http://www.w3.org/2000/svg">
<path d="M49.0745 2.0625H45.6493C43.1526 2.0625 40.9751 4.03077 41.121 7.5972H38.6611V10.918H41.285V19.9375H45.1797V10.918H49.2385V19.9375H53.3382V7.59724H45.4258V6.73626C45.4165 6.56017 45.4436 6.38406 45.5053 6.21889C45.567 6.05371 45.6621 5.90299 45.7845 5.7761C45.907 5.64921 46.0542 5.54887 46.2171 5.4813C46.3799 5.41374 46.555 5.3804 46.7313 5.38335H49.0745V2.0625Z" fill="black"/>
<g clip-path="url(#clip0_315_1834)">
<path d="M17.0156 14.0601C16.0057 14.0601 15.0569 13.6338 14.1976 12.936L14.4052 11.9515L14.4121 11.9123C14.6018 10.8667 15.1889 9.10872 17.0149 9.10872C18.3831 9.10872 19.4927 10.219 19.4927 11.5865C19.4927 12.9505 18.3824 14.0608 17.0149 14.0608L17.0156 14.0601ZM17.0156 6.60141C14.6884 6.60141 12.8796 8.11253 12.1461 10.6013C11.0289 8.92172 10.1764 6.90253 9.68275 5.20166H7.17612V11.7219C7.17269 13.011 6.13044 14.0532 4.84137 14.0567C3.55231 14.0532 2.51006 13.0075 2.50662 11.7219V5.20166H0V11.7219C0 14.3928 2.17319 16.5812 4.84137 16.5812C7.51231 16.5812 9.68275 14.3935 9.68275 11.7219V10.6295C10.1695 11.6428 10.7676 12.6741 11.4943 13.5837L9.95844 20.799H12.5221L13.6359 15.5637C14.6101 16.1865 15.7307 16.5805 17.0163 16.5805C19.7663 16.5805 22.0007 14.3317 22.0007 11.5851C22.0007 8.8351 19.7663 6.60072 17.0163 6.60072L17.0156 6.60141Z" fill="black"/>
</g>
<path d="M29.2846 15.3639V9.62793H30.0286V15.3639H29.2846ZM26.7886 12.8679V12.1359H32.5246V12.8679H26.7886Z" fill="black" fill-opacity="0.4"/>
<defs>
<clipPath id="clip0_315_1834">
<rect width="22" height="22" fill="white" transform="translate(0 1)"/>
</clipPath>
</defs>
</svg>

