<svg width="38" height="34" viewBox="0 0 38 34" fill="none" xmlns="http://www.w3.org/2000/svg">
<path fill-rule="evenodd" clip-rule="evenodd" d="M16.7837 33.1325C25.5909 32.6393 32.3851 25.2416 31.8818 16.6109C31.798 15.2136 31.5463 13.8984 31.1269 12.5833L30.8753 12.7476C31.2947 14.0628 31.5463 15.4601 31.5463 16.8575C31.5463 24.4196 25.2554 30.5022 17.5386 30.5022C17.287 30.5022 17.0353 30.5022 16.7837 30.5022V33.1325Z" fill="black"/>
<path fill-rule="evenodd" clip-rule="evenodd" d="M2.77539 26.3104C5.62726 30.4202 10.3245 32.9683 15.3572 33.1327V30.338C11.4149 29.6804 8.05974 27.9543 5.8789 24.5842L2.77539 26.3104Z" fill="black"/>
<path fill-rule="evenodd" clip-rule="evenodd" d="M1.34951 10.4463C-0.663572 15.2137 -0.411937 20.5565 2.02054 25.0773L5.20793 23.269C3.61423 19.8989 3.69811 16.0357 5.45956 12.7478L1.34951 10.4463Z" fill="black"/>
<path fill-rule="evenodd" clip-rule="evenodd" d="M15.3566 0.172119C9.65286 0.829695 4.62015 4.19977 1.93604 9.13159L6.12996 11.5153C8.22693 8.47401 11.5821 6.58348 15.2727 6.33689V0.172119H15.3566Z" fill="black"/>
<path fill-rule="evenodd" clip-rule="evenodd" d="M31.2104 6.74765C27.7714 2.39121 22.4032 -0.156896 16.8672 0.0074978V6.25447C19.8868 6.41886 22.6548 7.56962 24.8357 9.62454L31.2104 6.74765Z" fill="black"/>
<path fill-rule="evenodd" clip-rule="evenodd" d="M16.112 15.05C17.7057 15.05 19.0478 16.283 19.0478 17.9269C19.0478 19.4887 17.7896 20.8038 16.112 20.8038C14.5183 20.8038 13.1763 19.5709 13.1763 17.9269C13.1763 16.3652 14.5183 15.05 16.112 15.05Z" fill="black"/>
<path fill-rule="evenodd" clip-rule="evenodd" d="M34.565 7.56982L25.8416 13.4058L17.1182 19.1596L16.3633 17.8444L15.6084 16.5293L25.0867 12.0907L34.565 7.56982Z" fill="black"/>
<path fill-rule="evenodd" clip-rule="evenodd" d="M37.5013 6.00774L35.0688 8.47365H34.985L34.9011 8.39145C34.8172 8.06267 34.7333 7.73388 34.5656 7.48729C34.3978 7.2407 34.23 6.99411 33.9784 6.74751C33.8945 6.74751 33.8945 6.66532 33.8945 6.58312C33.8945 6.58312 33.8945 6.58312 33.9784 6.50092L37.4174 5.67896C37.5013 5.67896 37.5013 5.67895 37.5013 5.76115C37.5852 5.92555 37.5852 6.00774 37.5013 6.00774Z" fill="black"/>
</svg>

