<svg width="110" height="23" viewBox="0 0 110 23" fill="none" xmlns="http://www.w3.org/2000/svg">
<path d="M62.2906 8.29236H57.8468V8.76414C59.2368 8.76414 59.4609 9.0617 59.4609 10.8245V14.0026C59.4609 15.7655 59.2377 16.0884 57.8468 16.0884C56.7799 15.9397 56.0596 15.3681 55.0661 14.2757L53.9239 13.0346C55.4625 12.7615 56.2818 11.7935 56.2818 10.7002C56.2818 9.33479 55.1151 8.29236 52.9304 8.29236H48.561V8.76414C49.9509 8.76414 50.1751 9.0617 50.1751 10.8245V14.0026C50.1751 15.7655 49.9519 16.0884 48.561 16.0884V16.5602H53.502V16.0884C52.1121 16.0884 51.888 15.7655 51.888 14.0026V13.109H52.3098L55.0652 16.5593H62.2896C65.8397 16.5593 67.3794 14.6731 67.3794 12.4131C67.3794 10.1531 65.8407 8.29236 62.2896 8.29236H62.2906ZM51.8889 12.3387V9.03722H52.9068C54.0237 9.03722 54.5209 9.80656 54.5209 10.7002C54.5209 11.5939 54.0246 12.3387 52.9068 12.3387H51.8889ZM62.365 15.7899H62.1908C61.2971 15.7899 61.1728 15.5668 61.1728 14.4245V9.03722H62.364C64.9461 9.03722 65.4179 10.9234 65.4179 12.3886C65.4179 13.8539 64.9461 15.7899 62.364 15.7899H62.365Z" fill="black"/>
<path d="M34.7335 13.2578L36.4464 8.19251C36.9426 6.72821 36.7195 6.30635 35.1309 6.30635V5.81008H39.7987V6.30635C38.2346 6.30635 37.8626 6.6783 37.2411 8.49102L34.4105 16.9821H34.0875L31.5553 9.2114L28.9733 16.9821H28.6503L25.8949 8.49102C25.2989 6.6783 24.9015 6.30635 23.4617 6.30635V5.81008H28.9733V6.30635C27.508 6.30635 27.1106 6.65382 27.6323 8.19251L29.2953 13.2578L31.803 5.80914H32.2748L34.7325 13.2578H34.7335Z" fill="black"/>
<path d="M43.1737 16.8823C40.4428 16.8823 38.2083 14.8718 38.2083 12.4131C38.2083 9.9544 40.4428 7.96936 43.1737 7.96936C45.9045 7.96936 48.1391 9.98077 48.1391 12.4131C48.1391 14.8454 45.9045 16.8823 43.1737 16.8823ZM43.1737 8.73965C40.8901 8.73965 40.0954 10.8 40.0954 12.414C40.0954 14.0281 40.8901 16.0884 43.1737 16.0884C45.4572 16.0884 46.2774 14.0526 46.2774 12.414C46.2774 10.7755 45.4827 8.73965 43.1737 8.73965Z" fill="black"/>
<path d="M73.5125 16.063V16.5593H67.8276V16.063C69.4906 16.063 69.7891 15.6412 69.7891 13.158V9.18601C69.7891 6.70282 69.4916 6.30638 67.8276 6.30638V5.81012H72.9663C75.5239 5.81012 76.9392 7.12658 76.9392 8.88938C76.9392 10.6522 75.5239 11.9432 72.9663 11.9432H71.551V13.1599C71.551 15.643 71.8486 16.0649 73.5125 16.0649V16.063ZM72.9663 6.70377H71.551V11.0241H72.9663C74.3572 11.0241 75.0022 10.0561 75.0022 8.88938C75.0022 7.72265 74.3572 6.70471 72.9663 6.70471V6.70377Z" fill="black"/>
<path d="M93.9937 14.2268L93.8694 14.6741C93.6463 15.4933 93.3732 15.7909 91.6104 15.7909H91.2629C89.9719 15.7909 89.7487 15.4933 89.7487 13.7305V12.5883C91.6848 12.5883 91.8345 12.7615 91.8345 14.0526H92.3063V10.3537H91.8345C91.8345 11.6447 91.6857 11.818 89.7487 11.818V9.03722H91.1141C92.8769 9.03722 93.15 9.33479 93.3732 10.154L93.4975 10.6258H93.8949L93.7216 8.29236H86.4227V8.76414C87.8126 8.76414 88.0367 9.0617 88.0367 10.8245V14.0026C88.0367 15.6148 87.8465 16.0216 86.7504 16.079C85.7089 15.9199 84.9933 15.3521 84.0149 14.2757L82.8726 13.0346C84.4122 12.7615 85.2315 11.7935 85.2315 10.7002C85.2315 9.33479 84.0648 8.29236 81.8801 8.29236H77.5107V8.76414C78.9006 8.76414 79.1248 9.0617 79.1248 10.8245V14.0026C79.1248 15.7655 78.9016 16.0884 77.5107 16.0884V16.5602H82.4517V16.0884C81.0618 16.0884 80.8377 15.7655 80.8377 14.0026V13.109H81.2595L84.0149 16.5593H94.2188L94.3676 14.2258H93.9956L93.9937 14.2268ZM80.8358 12.3387V9.03722H81.8537C82.9705 9.03722 83.4678 9.80656 83.4678 10.7002C83.4678 11.5939 82.9715 12.3387 81.8537 12.3387H80.8358Z" fill="black"/>
<path d="M99.0336 16.8823C98.0402 16.8823 97.171 16.3606 96.7991 16.0385C96.6748 16.1628 96.4516 16.5348 96.4017 16.8823H95.9299V13.4565H96.4262C96.6248 15.095 97.7671 16.063 99.2314 16.063C100.026 16.063 100.671 15.6157 100.671 14.8718C100.671 14.2268 100.1 13.7296 99.0826 13.2578L97.6673 12.5873C96.6738 12.1155 95.929 11.2963 95.929 10.2039C95.929 9.01273 97.0458 7.99479 98.5854 7.99479C99.4047 7.99479 100.1 8.29235 100.521 8.63983C100.646 8.54001 100.769 8.26693 100.844 7.96936H101.316V10.8989H100.795C100.62 9.73217 99.9753 8.76319 98.6598 8.76319C97.9648 8.76319 97.3189 9.16057 97.3189 9.78113C97.3189 10.4017 97.8405 10.7737 99.0318 11.3198L100.397 11.9903C101.589 12.5609 102.06 13.48 102.06 14.2249C102.06 15.789 100.695 16.8813 99.0318 16.8813L99.0336 16.8823Z" fill="black"/>
<path d="M106.54 16.8823C105.547 16.8823 104.678 16.3606 104.306 16.0385C104.182 16.1628 103.958 16.5348 103.908 16.8823H103.437V13.4565H103.933C104.132 15.095 105.274 16.063 106.738 16.063C107.533 16.063 108.178 15.6157 108.178 14.8718C108.178 14.2268 107.606 13.7296 106.589 13.2578L105.174 12.5873C104.181 12.1155 103.436 11.2963 103.436 10.2039C103.436 9.01273 104.553 7.99479 106.092 7.99479C106.911 7.99479 107.606 8.29235 108.028 8.63983C108.153 8.54001 108.276 8.26693 108.351 7.96936H108.823V10.8989H108.301C108.127 9.73217 107.482 8.76319 106.167 8.76319C105.472 8.76319 104.826 9.16057 104.826 9.78113C104.826 10.4017 105.347 10.7737 106.539 11.3198L107.904 11.9903C109.096 12.5609 109.567 13.48 109.567 14.2249C109.567 15.789 108.202 16.8813 106.539 16.8813L106.54 16.8823Z" fill="black"/>
<path d="M11.172 0.670469C12.5901 0.670469 13.965 0.948262 15.2598 1.49537C15.8822 1.7581 16.4821 2.08392 17.0433 2.46341C17.5998 2.83914 18.1224 3.27042 18.598 3.74596C19.0735 4.22151 19.5048 4.74414 19.8805 5.30066C20.26 5.8619 20.5859 6.46174 20.8486 7.08419C21.3957 8.37804 21.6735 9.75382 21.6735 11.172C21.6735 12.5901 21.3957 13.965 20.8486 15.2598C20.5859 15.8822 20.26 16.4821 19.8805 17.0433C19.5048 17.5998 19.0735 18.1224 18.598 18.598C18.1224 19.0735 17.5998 19.5048 17.0433 19.8805C16.4821 20.26 15.8822 20.5859 15.2598 20.8486C13.9659 21.3957 12.5901 21.6735 11.172 21.6735C9.75382 21.6735 8.37898 21.3957 7.08419 20.8486C6.46174 20.5859 5.8619 20.26 5.30066 19.8805C4.74414 19.5048 4.22151 19.0735 3.74596 18.598C3.27042 18.1224 2.83914 17.5998 2.46341 17.0433C2.08392 16.4821 1.7581 15.8822 1.49537 15.2598C0.948262 13.9659 0.670469 12.5901 0.670469 11.172C0.670469 9.75382 0.948262 8.37898 1.49537 7.08419C1.7581 6.46174 2.08392 5.8619 2.46341 5.30066C2.83914 4.74414 3.27042 4.22151 3.74596 3.74596C4.22151 3.27042 4.74414 2.83914 5.30066 2.46341C5.8619 2.08392 6.46174 1.7581 7.08419 1.49537C8.37804 0.948262 9.75382 0.670469 11.172 0.670469ZM11.172 0C5.00215 0 0 5.00215 0 11.172C0 17.3418 5.00215 22.344 11.172 22.344C17.3418 22.344 22.344 17.3418 22.344 11.172C22.344 5.00215 17.3427 0 11.172 0Z" fill="black"/>
<path d="M1.86157 11.172C1.86157 14.8567 4.00293 18.0414 7.10856 19.5509L2.66858 7.38267C2.15161 8.53999 1.86251 9.8216 1.86251 11.172H1.86157ZM17.4575 10.7021C17.4575 9.55134 17.0441 8.75469 16.6901 8.13413C16.2183 7.36666 15.7757 6.71785 15.7757 5.95039C15.7757 5.09441 16.4245 4.29776 17.3389 4.29776C17.3803 4.29776 17.4189 4.30247 17.4594 4.30529C15.803 2.78732 13.5957 1.86072 11.1719 1.86072C7.91934 1.86072 5.0576 3.52936 3.39273 6.0568C3.6112 6.06339 3.81742 6.0681 3.99163 6.0681C4.96532 6.0681 6.47293 5.94945 6.47293 5.94945C6.97484 5.92026 7.03417 6.65759 6.53226 6.71691C6.53226 6.71691 6.02752 6.77624 5.46723 6.80543L8.85724 16.8898L10.895 10.7793L9.44484 6.80543C8.94293 6.77624 8.46833 6.71691 8.46833 6.71691C7.96642 6.68772 8.02481 5.92026 8.52766 5.94945C8.52766 5.94945 10.0645 6.0681 10.9798 6.0681C11.9535 6.0681 13.4611 5.94945 13.4611 5.94945C13.963 5.92026 14.0223 6.65759 13.5204 6.71691C13.5204 6.71691 13.0157 6.77624 12.4554 6.80543L15.82 16.8135L16.7805 13.77C17.207 12.4404 17.4575 11.4978 17.4575 10.7011V10.7021ZM11.3357 11.9865L8.54178 20.1037C9.3761 20.3495 10.2584 20.4832 11.1719 20.4832C12.2557 20.4832 13.2963 20.2958 14.2634 19.9549C14.2389 19.9154 14.2153 19.873 14.1965 19.8268L11.3348 11.9865H11.3357ZM19.3427 6.70561C19.3823 7.00224 19.4049 7.32052 19.4049 7.66329C19.4049 8.60779 19.2279 9.66999 18.6968 10.9977L15.8529 19.2195C18.6205 17.6054 20.4822 14.6072 20.4822 11.172C20.4822 9.55322 20.0688 8.03148 19.3418 6.70561H19.3427Z" fill="black"/>
</svg>
